Upgrade_Try-UltraBlack_Italic.ufo
<glyph name="exclam" format="2">
  <advance width="332"/>
  <unicode hex="0021"/>
  <outline>
    <contour>
      <point x="76" y="232" type="line"/>
      <point x="320" y="232" type="line"/>
      <point x="388" y="716" type="line"/>
      <point x="144" y="716" type="line"/>
    </contour>
    <contour>
      <point x="44" y="0" type="line"/>
      <point x="288" y="0" type="line"/>
      <point x="313" y="180" type="line"/>
      <point x="69" y="180" type="line"/>
    </contour>
  </outline>
</glyph>
<glyph name="dollar" format="2">
  <advance width="668"/>
  <unicode hex="0024"/>
  <outline>
    <contour>
      <point x="303" y="351" type="line" smooth="yes"/>
      <point x="483" y="351" type="line" smooth="yes"/>
      <point x="541" y="762" type="line" smooth="yes"/>
      <point x="361" y="762" type="line" smooth="yes"/>
    </contour>
    <contour>
      <point x="240" y="-102" type="line"/>
      <point x="420" y="-102" type="line"/>
      <point x="482" y="340" type="line"/>
      <point x="302" y="340" type="line"/>
    </contour>
    <component base="S" xOffset="16"/>
  </outline>
</glyph>
<glyph name="ampersand" format="2">
  <advance width="751"/>
  <unicode hex="0026"/>
  <outline>
    <contour>
      <point x="575" y="-82" type="curve" smooth="yes"/>
      <point x="624" y="-82"/>
      <point x="668" y="-76"/>
      <point x="706" y="-63" type="curve"/>
      <point x="732" y="123" type="line"/>
      <point x="719" y="113"/>
      <point x="707" y="106"/>
      <point x="692" y="106" type="curve" smooth="yes"/>
      <point x="680" y="106"/>
      <point x="673" y="117"/>
      <point x="675" y="135" type="curve" smooth="yes"/>
      <point x="691" y="252" type="line"/>
      <point x="750" y="252" type="line"/>
      <point x="775" y="432" type="line"/>
      <point x="716" y="432" type="line"/>
      <point x="734" y="558" type="line"/>
      <point x="482" y="558" type="line"/>
      <point x="463" y="425" type="line"/>
      <point x="447" y="425" type="line" smooth="yes"/>
      <point x="419" y="425"/>
      <point x="404" y="442"/>
      <point x="404" y="461" type="curve" smooth="yes"/>
      <point x="404" y="483"/>
      <point x="421" y="499"/>
      <point x="454" y="499" type="curve" smooth="yes"/>
      <point x="487" y="499"/>
      <point x="529" y="482"/>
      <point x="582" y="449" type="curve"/>
      <point x="609" y="643" type="line"/>
      <point x="542" y="668"/>
      <point x="481" y="678"/>
      <point x="413" y="678" type="curve" smooth="yes"/>
      <point x="192" y="678"/>
      <point x="107" y="578"/>
      <point x="107" y="476" type="curve" smooth="yes"/>
      <point x="107" y="392"/>
      <point x="165" y="325"/>
      <point x="280" y="277" type="curve"/>
      <point x="320" y="348" type="line"/>
      <point x="103" y="319"/>
      <point x="55" y="229"/>
      <point x="55" y="148" type="curve" smooth="yes"/>
      <point x="55" y="64"/>
      <point x="123" y="-20"/>
      <point x="253" y="-20" type="curve" smooth="yes"/>
      <point x="329" y="-20"/>
      <point x="401" y="12"/>
      <point x="428" y="79" type="curve"/>
      <point x="425" y="61" type="line"/>
      <point x="424" y="51" type="line" smooth="yes"/>
      <point x="416" y="-25"/>
      <point x="475" y="-82"/>
    </contour>
    <contour>
      <point x="384" y="172" type="curve" smooth="yes"/>
      <point x="363" y="172"/>
      <point x="351" y="184"/>
      <point x="351" y="203" type="curve" smooth="yes"/>
      <point x="351" y="233"/>
      <point x="374" y="252"/>
      <point x="412" y="252" type="curve" smooth="yes"/>
      <point x="439" y="252" type="line"/>
      <point x="435" y="222" type="line" smooth="yes"/>
      <point x="431" y="190"/>
      <point x="411" y="172"/>
    </contour>
  </outline>
</glyph>
<glyph name="parenleft" format="2">
  <advance width="492"/>
  <unicode hex="0028"/>
  <outline>
    <contour>
      <point x="169" y="-220" type="curve"/>
      <point x="413" y="-220" type="line"/>
      <point x="350" y="-104"/>
      <point x="323" y="28"/>
      <point x="323" y="168" type="curve" smooth="yes"/>
      <point x="323" y="332"/>
      <point x="397" y="522"/>
      <point x="560" y="716" type="curve"/>
      <point x="316" y="716" type="line"/>
      <point x="156" y="535"/>
      <point x="85" y="343"/>
      <point x="85" y="162" type="curve" smooth="yes"/>
      <point x="85" y="12"/>
      <point x="113" y="-118"/>
    </contour>
  </outline>
</glyph>
<glyph name="parenright" format="2">
  <advance width="492"/>
  <unicode hex="0029"/>
  <outline>
    <contour>
      <point x="1" y="-220" type="curve"/>
      <point x="249" y="-220" type="line"/>
      <point x="409" y="-39"/>
      <point x="476" y="153"/>
      <point x="476" y="334" type="curve" smooth="yes"/>
      <point x="476" y="484"/>
      <point x="444" y="614"/>
      <point x="386" y="716" type="curve"/>
      <point x="148" y="716" type="line"/>
      <point x="210" y="600"/>
      <point x="238" y="468"/>
      <point x="238" y="328" type="curve" smooth="yes"/>
      <point x="238" y="164"/>
      <point x="164" y="-26"/>
    </contour>
  </outline>
</glyph>
<glyph name="comma" format="2">
  <advance width="357"/>
  <unicode hex="002C"/>
  <outline>
    <contour>
      <point x="222" y="-159" type="line"/>
      <point x="283" y="-90"/>
      <point x="310" y="-13"/>
      <point x="324" y="84" type="curve" smooth="yes"/>
      <point x="344" y="224" type="line"/>
      <point x="100" y="224" type="line"/>
      <point x="80" y="84" type="line" smooth="yes"/>
      <point x="68" y="2"/>
      <point x="56" y="-56"/>
      <point x="21" y="-135" type="curve"/>
    </contour>
  </outline>
</glyph>
<glyph name="hyphen" format="2">
  <advance width="368"/>
  <unicode hex="002D"/>
  <unicode hex="00AD"/>
  <unicode hex="2010"/>
  <outline>
    <contour>
      <point x="66" y="157" type="line"/>
      <point x="346" y="157" type="line"/>
      <point x="369" y="321" type="line"/>
      <point x="89" y="321" type="line"/>
    </contour>
  </outline>
</glyph>
<glyph name="period" format="2">
  <advance width="332"/>
  <unicode hex="002E"/>
  <outline>
    <contour>
      <point x="44" y="0" type="line"/>
      <point x="288" y="0" type="line"/>
      <point x="319" y="224" type="line"/>
      <point x="75" y="224" type="line"/>
    </contour>
  </outline>
</glyph>
<glyph name="slash" format="2">
  <advance width="536"/>
  <unicode hex="002F"/>
  <outline>
    <contour>
      <point x="12" y="0" type="line"/>
      <point x="240" y="0" type="line"/>
      <point x="624" y="716" type="line"/>
      <point x="396" y="716" type="line"/>
    </contour>
  </outline>
</glyph>
<glyph name="zero" format="2">
  <advance width="751"/>
  <unicode hex="0030"/>
  <anchor x="425" y="457" name="top"/>
  <outline>
    <contour>
      <point x="380" y="-20" type="curve" smooth="yes"/>
      <point x="620" y="-20"/>
      <point x="768" y="146"/>
      <point x="768" y="388" type="curve" smooth="yes"/>
      <point x="768" y="578"/>
      <point x="649" y="678"/>
      <point x="465" y="678" type="curve" smooth="yes"/>
      <point x="224" y="678"/>
      <point x="76" y="522"/>
      <point x="76" y="269" type="curve" smooth="yes"/>
      <point x="76" y="80"/>
      <point x="196" y="-20"/>
    </contour>
    <contour>
      <point x="404" y="209" type="curve" smooth="yes"/>
      <point x="380" y="209"/>
      <point x="370" y="229"/>
      <point x="370" y="273" type="curve" smooth="yes"/>
      <point x="370" y="366"/>
      <point x="400" y="450"/>
      <point x="440" y="450" type="curve" smooth="yes"/>
      <point x="464" y="450"/>
      <point x="474" y="430"/>
      <point x="474" y="386" type="curve" smooth="yes"/>
      <point x="474" y="285"/>
      <point x="441" y="209"/>
    </contour>
  </outline>
</glyph>
<glyph name="one" format="2">
  <advance width="424"/>
  <unicode hex="0031"/>
  <outline>
    <contour>
      <point x="92" y="0" type="line"/>
      <point x="368" y="0" type="line"/>
      <point x="462" y="669" type="line"/>
      <point x="111" y="649" type="line"/>
      <point x="80" y="429" type="line"/>
      <point x="152" y="429" type="line"/>
    </contour>
  </outline>
</glyph>
<glyph name="two" format="2">
  <advance width="591"/>
  <unicode hex="0032"/>
  <outline>
    <contour>
      <point x="28" y="0" type="line"/>
      <point x="558" y="0" type="line"/>
      <point x="590" y="228" type="line"/>
      <point x="105" y="228" type="line"/>
      <point x="133" y="205" type="line"/>
      <point x="229" y="212" type="line" smooth="yes"/>
      <point x="434" y="227"/>
      <point x="628" y="345"/>
      <point x="628" y="491" type="curve" smooth="yes"/>
      <point x="628" y="608"/>
      <point x="528" y="680"/>
      <point x="367" y="680" type="curve" smooth="yes"/>
      <point x="279" y="680"/>
      <point x="179" y="661"/>
      <point x="118" y="637" type="curve"/>
      <point x="86" y="405" type="line"/>
      <point x="138" y="432"/>
      <point x="210" y="452"/>
      <point x="266" y="452" type="curve" smooth="yes"/>
      <point x="309" y="452"/>
      <point x="336" y="440"/>
      <point x="336" y="415" type="curve" smooth="yes"/>
      <point x="336" y="376"/>
      <point x="274" y="340"/>
      <point x="121" y="290" type="curve" smooth="yes"/>
      <point x="66" y="272" type="line"/>
    </contour>
  </outline>
</glyph>
<glyph name="three" format="2">
  <advance width="605"/>
  <unicode hex="0033"/>
  <outline>
    <contour>
      <point x="285" y="-12" type="curve" smooth="yes"/>
      <point x="494" y="-12"/>
      <point x="603" y="74"/>
      <point x="603" y="200" type="curve" smooth="yes"/>
      <point x="603" y="285"/>
      <point x="546" y="333"/>
      <point x="435" y="344" type="curve"/>
      <point x="435" y="325" type="line"/>
      <point x="560" y="336"/>
      <point x="640" y="405"/>
      <point x="640" y="508" type="curve" smooth="yes"/>
      <point x="640" y="611"/>
      <point x="549" y="678"/>
      <point x="392" y="678" type="curve" smooth="yes"/>
      <point x="287" y="678"/>
      <point x="210" y="665"/>
      <point x="126" y="640" type="curve"/>
      <point x="96" y="424" type="line"/>
      <point x="152" y="448"/>
      <point x="224" y="463"/>
      <point x="283" y="463" type="curve" smooth="yes"/>
      <point x="326" y="463"/>
      <point x="345" y="456"/>
      <point x="345" y="439" type="curve" smooth="yes"/>
      <point x="345" y="420"/>
      <point x="327" y="412"/>
      <point x="282" y="412" type="curve" smooth="yes"/>
      <point x="188" y="412" type="line"/>
      <point x="167" y="260" type="line"/>
      <point x="273" y="260" type="line" smooth="yes"/>
      <point x="310" y="260"/>
      <point x="325" y="253"/>
      <point x="325" y="236" type="curve" smooth="yes"/>
      <point x="325" y="216"/>
      <point x="296" y="206"/>
      <point x="243" y="206" type="curve" smooth="yes"/>
      <point x="187" y="206"/>
      <point x="135" y="219"/>
      <point x="63" y="251" type="curve"/>
      <point x="32" y="31" type="line"/>
      <point x="112" y="1"/>
      <point x="186" y="-12"/>
    </contour>
  </outline>
</glyph>
<glyph name="four" format="2">
  <advance width="673"/>
  <unicode hex="0034"/>
  <outline>
    <contour>
      <point x="316" y="0" type="line"/>
      <point x="588" y="0" type="line"/>
      <point x="601" y="89" type="line"/>
      <point x="655" y="89" type="line"/>
      <point x="683" y="289" type="line"/>
      <point x="629" y="289" type="line"/>
      <point x="682" y="666" type="line"/>
      <point x="309" y="666" type="line"/>
      <point x="70" y="267" type="line"/>
      <point x="45" y="91" type="line"/>
      <point x="329" y="91" type="line"/>
    </contour>
    <contour>
      <point x="357" y="291" type="line"/>
      <point x="270" y="291" type="line"/>
      <point x="383" y="480" type="line"/>
    </contour>
  </outline>
</glyph>
<glyph name="five" format="2">
  <advance width="602"/>
  <unicode hex="0035"/>
  <outline>
    <contour>
      <point x="244" y="-12" type="curve" smooth="yes"/>
      <point x="467" y="-12"/>
      <point x="604" y="79"/>
      <point x="604" y="227" type="curve" smooth="yes"/>
      <point x="604" y="329"/>
      <point x="517" y="391"/>
      <point x="376" y="391" type="curve" smooth="yes"/>
      <point x="328" y="391"/>
      <point x="277" y="382"/>
      <point x="244" y="367" type="curve"/>
      <point x="302" y="335" type="line"/>
      <point x="321" y="430" type="line"/>
      <point x="608" y="430" type="line"/>
      <point x="642" y="666" type="line"/>
      <point x="153" y="666" type="line"/>
      <point x="69" y="248" type="line"/>
      <point x="130" y="260"/>
      <point x="188" y="266"/>
      <point x="252" y="266" type="curve" smooth="yes"/>
      <point x="300" y="266"/>
      <point x="324" y="253"/>
      <point x="324" y="234" type="curve" smooth="yes"/>
      <point x="324" y="214"/>
      <point x="298" y="201"/>
      <point x="247" y="201" type="curve" smooth="yes"/>
      <point x="176" y="201"/>
      <point x="123" y="206"/>
      <point x="63" y="217" type="curve"/>
      <point x="32" y="0" type="line"/>
      <point x="102" y="-8"/>
      <point x="179" y="-12"/>
    </contour>
  </outline>
</glyph>
<glyph name="seven" format="2">
  <advance width="625"/>
  <unicode hex="0037"/>
  <outline>
    <contour>
      <point x="71" y="0" type="line" smooth="yes"/>
      <point x="383" y="0" type="line" smooth="yes"/>
      <point x="659" y="476" type="line" smooth="yes"/>
      <point x="686" y="666" type="line" smooth="yes"/>
      <point x="121" y="666" type="line"/>
      <point x="86" y="414" type="line"/>
      <point x="441" y="414" type="line" smooth="yes"/>
      <point x="364" y="480" type="line" smooth="yes"/>
    </contour>
  </outline>
</glyph>
<glyph name="question" format="2">
  <advance width="541"/>
  <unicode hex="003F"/>
  <outline>
    <contour>
      <point x="114" y="1" type="line"/>
      <point x="358" y="1" type="line"/>
      <point x="383" y="181" type="line"/>
      <point x="139" y="181" type="line"/>
    </contour>
    <contour>
      <point x="154" y="233" type="curve"/>
      <point x="382" y="233" type="line"/>
      <point x="387" y="272"/>
      <point x="408" y="305"/>
      <point x="445" y="333" type="curve" smooth="yes"/>
      <point x="559" y="419"/>
      <point x="593" y="480"/>
      <point x="593" y="558" type="curve" smooth="yes"/>
      <point x="593" y="658"/>
      <point x="507" y="716"/>
      <point x="339" y="716" type="curve" smooth="yes"/>
      <point x="250" y="716"/>
      <point x="196" y="706"/>
      <point x="119" y="680" type="curve"/>
      <point x="91" y="477" type="line"/>
      <point x="149" y="503"/>
      <point x="191" y="513"/>
      <point x="236" y="513" type="curve" smooth="yes"/>
      <point x="271" y="513"/>
      <point x="294" y="499"/>
      <point x="294" y="474" type="curve" smooth="yes"/>
      <point x="294" y="453"/>
      <point x="281" y="432"/>
      <point x="248" y="404" type="curve" smooth="yes"/>
      <point x="188" y="353"/>
      <point x="164" y="305"/>
    </contour>
  </outline>
</glyph>
<glyph name="at" format="2">
  <advance width="824"/>
  <unicode hex="0040"/>
  <outline>
    <contour>
      <point x="404" y="-83" type="curve" smooth="yes"/>
      <point x="468" y="-83"/>
      <point x="524" y="-75"/>
      <point x="584" y="-58" type="curve"/>
      <point x="603" y="78" type="line"/>
      <point x="538" y="52"/>
      <point x="480" y="39"/>
      <point x="413" y="39" type="curve" smooth="yes"/>
      <point x="288" y="39"/>
      <point x="213" y="122"/>
      <point x="213" y="235" type="curve" smooth="yes"/>
      <point x="213" y="394"/>
      <point x="336" y="512"/>
      <point x="502" y="512" type="curve" smooth="yes"/>
      <point x="621" y="512"/>
      <point x="692" y="445"/>
      <point x="692" y="342" type="curve" smooth="yes"/>
      <point x="692" y="269"/>
      <point x="667" y="214"/>
      <point x="634" y="214" type="curve" smooth="yes"/>
      <point x="605" y="214"/>
      <point x="594" y="242"/>
      <point x="605" y="285" type="curve" smooth="yes"/>
      <point x="643" y="432" type="line"/>
      <point x="603" y="452"/>
      <point x="548" y="465"/>
      <point x="502" y="465" type="curve" smooth="yes"/>
      <point x="359" y="465"/>
      <point x="253" y="365"/>
      <point x="253" y="230" type="curve" smooth="yes"/>
      <point x="253" y="150"/>
      <point x="304" y="101"/>
      <point x="380" y="101" type="curve" smooth="yes"/>
      <point x="441" y="101"/>
      <point x="488" y="127"/>
      <point x="517" y="176" type="curve"/>
      <point x="503" y="176" type="line"/>
      <point x="506" y="127"/>
      <point x="551" y="95"/>
      <point x="616" y="95" type="curve" smooth="yes"/>
      <point x="739" y="95"/>
      <point x="830" y="195"/>
      <point x="830" y="354" type="curve" smooth="yes"/>
      <point x="830" y="525"/>
      <point x="690" y="634"/>
      <point x="508" y="634" type="curve" smooth="yes"/>
      <point x="260" y="634"/>
      <point x="75" y="457"/>
      <point x="75" y="220" type="curve" smooth="yes"/>
      <point x="75" y="38"/>
      <point x="200" y="-83"/>
    </contour>
    <contour>
      <point x="427" y="226" type="curve" smooth="yes"/>
      <point x="414" y="226"/>
      <point x="405" y="237"/>
      <point x="405" y="256" type="curve" smooth="yes"/>
      <point x="405" y="302"/>
      <point x="432" y="337"/>
      <point x="468" y="337" type="curve" smooth="yes"/>
      <point x="474" y="337"/>
      <point x="477" y="337"/>
      <point x="483" y="335" type="curve"/>
      <point x="469" y="287" type="line" smooth="yes"/>
      <point x="457" y="247"/>
      <point x="442" y="226"/>
    </contour>
  </outline>
</glyph>
<glyph name="A" format="2">
  <advance width="736"/>
  <unicode hex="0041"/>
  <anchor x="458" y="642" name="top"/>
  <anchor x="623" y="16" name="ogonek"/>
  <outline>
    <contour>
      <point x="12" y="0" type="line"/>
      <point x="260" y="0" type="line"/>
      <point x="292" y="89" type="line"/>
      <point x="270" y="89" type="line"/>
      <point x="468" y="89" type="line"/>
      <point x="445" y="89" type="line"/>
      <point x="452" y="0" type="line"/>
      <point x="724" y="0" type="line"/>
      <point x="640" y="658" type="line"/>
      <point x="281" y="658" type="line"/>
    </contour>
    <contour>
      <point x="348" y="245" type="line"/>
      <point x="367" y="298" type="line"/>
      <point x="434" y="482" type="line"/>
      <point x="415" y="482" type="line"/>
      <point x="429" y="298" type="line"/>
      <point x="433" y="245" type="line"/>
      <point x="455" y="245" type="line"/>
      <point x="326" y="245" type="line"/>
    </contour>
  </outline>
</glyph>
<glyph name="B" format="2">
  <advance width="666"/>
  <unicode hex="0042"/>
  <outline>
    <contour>
      <point x="44" y="0" type="line"/>
      <point x="421" y="0" type="line" smooth="yes"/>
      <point x="573" y="0"/>
      <point x="667" y="74"/>
      <point x="667" y="194" type="curve" smooth="yes"/>
      <point x="667" y="277"/>
      <point x="612" y="332"/>
      <point x="524" y="339" type="curve"/>
      <point x="522" y="319" type="line"/>
      <point x="641" y="334"/>
      <point x="702" y="396"/>
      <point x="702" y="504" type="curve" smooth="yes"/>
      <point x="702" y="606"/>
      <point x="620" y="658"/>
      <point x="488" y="658" type="curve" smooth="yes"/>
      <point x="136" y="658" type="line"/>
    </contour>
    <contour>
      <point x="357" y="404" type="line"/>
      <point x="371" y="504" type="line"/>
      <point x="395" y="504" type="line" smooth="yes"/>
      <point x="426" y="504"/>
      <point x="442" y="488"/>
      <point x="442" y="459" type="curve" smooth="yes"/>
      <point x="442" y="425"/>
      <point x="419" y="404"/>
      <point x="381" y="404" type="curve" smooth="yes"/>
    </contour>
    <contour>
      <point x="322" y="160" type="line"/>
      <point x="336" y="259" type="line"/>
      <point x="365" y="259" type="line" smooth="yes"/>
      <point x="399" y="259"/>
      <point x="419" y="246"/>
      <point x="419" y="216" type="curve" smooth="yes"/>
      <point x="419" y="182"/>
      <point x="393" y="160"/>
      <point x="351" y="160" type="curve" smooth="yes"/>
    </contour>
  </outline>
</glyph>
<glyph name="C" format="2">
  <advance width="612"/>
  <unicode hex="0043"/>
  <anchor x="462" y="654" name="top"/>
  <anchor x="348" y="8" name="bottom"/>
  <outline>
    <contour>
      <point x="413" y="-16" type="curve" smooth="yes"/>
      <point x="473" y="-16"/>
      <point x="530" y="-8"/>
      <point x="581" y="8" type="curve"/>
      <point x="614" y="246" type="line"/>
      <point x="566" y="226"/>
      <point x="520" y="216"/>
      <point x="478" y="216" type="curve" smooth="yes"/>
      <point x="408" y="216"/>
      <point x="364" y="254"/>
      <point x="364" y="315" type="curve" smooth="yes"/>
      <point x="364" y="388"/>
      <point x="424" y="442"/>
      <point x="505" y="442" type="curve" smooth="yes"/>
      <point x="547" y="442"/>
      <point x="584" y="433"/>
      <point x="632" y="412" type="curve"/>
      <point x="665" y="650" type="line"/>
      <point x="617" y="666"/>
      <point x="561" y="674"/>
      <point x="499" y="674" type="curve" smooth="yes"/>
      <point x="253" y="674"/>
      <point x="69" y="527"/>
      <point x="69" y="289" type="curve" smooth="yes"/>
      <point x="69" y="97"/>
      <point x="201" y="-16"/>
    </contour>
  </outline>
</glyph>
<glyph name="D" format="2">
  <advance width="740"/>
  <unicode hex="0044"/>
  <anchor x="410" y="642" name="top"/>
  <outline>
    <contour>
      <point x="44" y="0" type="line"/>
      <point x="344" y="0" type="line" smooth="yes"/>
      <point x="587" y="0"/>
      <point x="763" y="137"/>
      <point x="763" y="372" type="curve" smooth="yes"/>
      <point x="763" y="549"/>
      <point x="637" y="658"/>
      <point x="432" y="658" type="curve" smooth="yes"/>
      <point x="136" y="658" type="line"/>
    </contour>
    <contour>
      <point x="352" y="219" type="line"/>
      <point x="383" y="439" type="line"/>
      <point x="403" y="439" type="line" smooth="yes"/>
      <point x="449" y="439"/>
      <point x="471" y="411"/>
      <point x="471" y="355" type="curve" smooth="yes"/>
      <point x="471" y="279"/>
      <point x="429" y="219"/>
      <point x="372" y="219" type="curve" smooth="yes"/>
    </contour>
  </outline>
</glyph>
<glyph name="E" format="2">
  <advance width="582"/>
  <unicode hex="0045"/>
  <anchor x="375" y="642" name="top"/>
  <anchor x="540" y="16" name="ogonek"/>
  <outline>
    <contour>
      <point x="44" y="0" type="line"/>
      <point x="542" y="0" type="line"/>
      <point x="570" y="200" type="line"/>
      <point x="348" y="200" type="line"/>
      <point x="356" y="254" type="line"/>
      <point x="566" y="254" type="line"/>
      <point x="587" y="404" type="line"/>
      <point x="377" y="404" type="line"/>
      <point x="385" y="458" type="line"/>
      <point x="600" y="458" type="line"/>
      <point x="628" y="658" type="line"/>
      <point x="136" y="658" type="line"/>
    </contour>
  </outline>
</glyph>
<glyph name="F" format="2">
  <advance width="512"/>
  <unicode hex="0046"/>
  <outline>
    <contour>
      <point x="44" y="0" type="line"/>
      <point x="320" y="0" type="line"/>
      <point x="349" y="206" type="line"/>
      <point x="501" y="206" type="line"/>
      <point x="528" y="402" type="line"/>
      <point x="376" y="402" type="line"/>
      <point x="384" y="458" type="line"/>
      <point x="556" y="458" type="line"/>
      <point x="584" y="658" type="line"/>
      <point x="136" y="658" type="line"/>
    </contour>
  </outline>
</glyph>
<glyph name="G" format="2">
  <advance width="737"/>
  <unicode hex="0047"/>
  <anchor x="500" y="654" name="top"/>
  <anchor x="426" y="8" name="bottom"/>
  <outline>
    <contour>
      <point x="418" y="-16" type="curve" smooth="yes"/>
      <point x="494" y="-16"/>
      <point x="606" y="4"/>
      <point x="707" y="47" type="curve"/>
      <point x="757" y="402" type="line"/>
      <point x="443" y="402" type="line"/>
      <point x="421" y="248" type="line"/>
      <point x="471" y="248" type="line"/>
      <point x="464" y="200" type="line"/>
      <point x="451" y="194"/>
      <point x="436" y="192"/>
      <point x="424" y="192" type="curve" smooth="yes"/>
      <point x="382" y="192"/>
      <point x="361" y="217"/>
      <point x="361" y="280" type="curve" smooth="yes"/>
      <point x="361" y="389"/>
      <point x="418" y="465"/>
      <point x="528" y="465" type="curve" smooth="yes"/>
      <point x="580" y="465"/>
      <point x="639" y="456"/>
      <point x="713" y="433" type="curve"/>
      <point x="742" y="643" type="line"/>
      <point x="667" y="664"/>
      <point x="590" y="675"/>
      <point x="494" y="675" type="curve" smooth="yes"/>
      <point x="231" y="674"/>
      <point x="66" y="516"/>
      <point x="66" y="261" type="curve" smooth="yes"/>
      <point x="66" y="89"/>
      <point x="176" y="-16"/>
    </contour>
  </outline>
</glyph>
<glyph name="H" format="2">
  <advance width="728"/>
  <unicode hex="0048"/>
  <guideline x="364" y="0" angle="82.04" name="" identifier="JMBvttS7Pj"/>
  <anchor x="454" y="642" name="top"/>
  <outline>
    <contour>
      <point x="44" y="0" type="line"/>
      <point x="320" y="0" type="line"/>
      <point x="350" y="213" type="line"/>
      <point x="438" y="213" type="line"/>
      <point x="408" y="0" type="line"/>
      <point x="684" y="0" type="line"/>
      <point x="776" y="658" type="line"/>
      <point x="500" y="658" type="line"/>
      <point x="469" y="433" type="line"/>
      <point x="381" y="433" type="line"/>
      <point x="412" y="658" type="line"/>
      <point x="136" y="658" type="line"/>
    </contour>
  </outline>
</glyph>
<glyph name="I" format="2">
  <advance width="364"/>
  <unicode hex="0049"/>
  <anchor x="275" y="642" name="top"/>
  <anchor x="209" y="16" name="ogonek"/>
  <outline>
    <contour>
      <point x="44" y="0" type="line"/>
      <point x="320" y="0" type="line"/>
      <point x="412" y="658" type="line"/>
      <point x="136" y="658" type="line"/>
    </contour>
  </outline>
</glyph>
<glyph name="J" format="2">
  <advance width="373"/>
  <unicode hex="004A"/>
  <anchor x="283" y="642" name="top"/>
  <outline>
    <contour>
      <point x="1" y="-220" type="line" smooth="yes"/>
      <point x="198" y="-220"/>
      <point x="310" y="-133"/>
      <point x="334" y="38" type="curve" smooth="yes"/>
      <point x="421" y="658" type="line"/>
      <point x="145" y="658" type="line"/>
      <point x="57" y="30" type="line" smooth="yes"/>
      <point x="51" y="-14"/>
      <point x="30" y="-36"/>
      <point x="-5" y="-36" type="curve" smooth="yes"/>
      <point x="-21" y="-36" type="line"/>
      <point x="-47" y="-220" type="line"/>
    </contour>
  </outline>
</glyph>
<glyph name="K" format="2">
  <advance width="740"/>
  <unicode hex="004B"/>
  <anchor x="373" y="16" name="bottom"/>
  <outline>
    <contour>
      <point x="44" y="0" type="line"/>
      <point x="320" y="0" type="line"/>
      <point x="365" y="321" type="line"/>
      <point x="346" y="321" type="line"/>
      <point x="427" y="0" type="line"/>
      <point x="720" y="0" type="line"/>
      <point x="603" y="367" type="line"/>
      <point x="608" y="317" type="line"/>
      <point x="816" y="658" type="line"/>
      <point x="523" y="658" type="line"/>
      <point x="347" y="327" type="line"/>
      <point x="366" y="327" type="line"/>
      <point x="412" y="658" type="line"/>
      <point x="136" y="658" type="line"/>
    </contour>
  </outline>
</glyph>
<glyph name="L" format="2">
  <advance width="498"/>
  <unicode hex="004C"/>
  <anchor x="277" y="642" name="top"/>
  <anchor x="274" y="16" name="bottom"/>
  <anchor x="565" y="642" name="caron.vert"/>
  <outline>
    <contour>
      <point x="44" y="0" type="line"/>
      <point x="478" y="0" type="line"/>
      <point x="509" y="220" type="line"/>
      <point x="351" y="220" type="line"/>
      <point x="412" y="658" type="line"/>
      <point x="136" y="658" type="line"/>
    </contour>
  </outline>
</glyph>
<glyph name="M" format="2">
  <advance width="963"/>
  <unicode hex="004D"/>
  <outline>
    <contour>
      <point x="44" y="0" type="line"/>
      <point x="268" y="0" type="line"/>
      <point x="307" y="280" type="line"/>
      <point x="339" y="552" type="line"/>
      <point x="312" y="552" type="line"/>
      <point x="325" y="280" type="line"/>
      <point x="349" y="0" type="line"/>
      <point x="576" y="0" type="line"/>
      <point x="678" y="280" type="line" smooth="yes"/>
      <point x="774" y="552" type="line"/>
      <point x="742" y="552" type="line"/>
      <point x="697" y="280" type="line"/>
      <point x="658" y="0" type="line"/>
      <point x="919" y="0" type="line"/>
      <point x="1011" y="658" type="line"/>
      <point x="639" y="658" type="line"/>
      <point x="567" y="448" type="line"/>
      <point x="478" y="182" type="line"/>
      <point x="533" y="182" type="line"/>
      <point x="522" y="448" type="line"/>
      <point x="508" y="658" type="line"/>
      <point x="136" y="658" type="line"/>
    </contour>
  </outline>
</glyph>
<glyph name="N" format="2">
  <advance width="765"/>
  <unicode hex="004E"/>
  <anchor x="473" y="642" name="top"/>
  <anchor x="399" y="16" name="bottom"/>
  <outline>
    <contour>
      <point x="44" y="0" type="line"/>
      <point x="276" y="0" type="line"/>
      <point x="304" y="197" type="line"/>
      <point x="325" y="405" type="line"/>
      <point x="295" y="405" type="line"/>
      <point x="356" y="197" type="line"/>
      <point x="419" y="0" type="line"/>
      <point x="721" y="0" type="line"/>
      <point x="813" y="658" type="line"/>
      <point x="581" y="658" type="line"/>
      <point x="554" y="461" type="line"/>
      <point x="533" y="253" type="line"/>
      <point x="565" y="253" type="line"/>
      <point x="501" y="461" type="line"/>
      <point x="438" y="658" type="line"/>
      <point x="136" y="658" type="line"/>
    </contour>
  </outline>
</glyph>
<glyph name="O" format="2">
  <advance width="765"/>
  <unicode hex="004F"/>
  <anchor x="468" y="658" name="top"/>
  <outline>
    <contour>
      <point x="389" y="-18" type="curve" smooth="yes"/>
      <point x="628" y="-18"/>
      <point x="790" y="150"/>
      <point x="788" y="372" type="curve" smooth="yes"/>
      <point x="785" y="574"/>
      <point x="663" y="677"/>
      <point x="469" y="677" type="curve" smooth="yes"/>
      <point x="246" y="677"/>
      <point x="69" y="529"/>
      <point x="69" y="285" type="curve" smooth="yes"/>
      <point x="69" y="84"/>
      <point x="191" y="-18"/>
    </contour>
    <contour>
      <point x="411" y="210" type="curve" smooth="yes"/>
      <point x="378" y="210"/>
      <point x="361" y="239"/>
      <point x="361" y="286" type="curve" smooth="yes"/>
      <point x="361" y="379"/>
      <point x="396" y="449"/>
      <point x="447" y="449" type="curve" smooth="yes"/>
      <point x="479" y="449"/>
      <point x="496" y="421"/>
      <point x="496" y="373" type="curve" smooth="yes"/>
      <point x="496" y="280"/>
      <point x="462" y="210"/>
    </contour>
  </outline>
</glyph>
<glyph name="P" format="2">
  <advance width="703"/>
  <unicode hex="0050"/>
  <outline>
    <contour>
      <point x="44" y="0" type="line"/>
      <point x="320" y="0" type="line"/>
      <point x="338" y="132" type="line"/>
      <point x="383" y="132" type="line" smooth="yes"/>
      <point x="590" y="132"/>
      <point x="738" y="230"/>
      <point x="738" y="418" type="curve" smooth="yes"/>
      <point x="738" y="589"/>
      <point x="636" y="658"/>
      <point x="435" y="658" type="curve" smooth="yes"/>
      <point x="136" y="658" type="line"/>
    </contour>
    <contour>
      <point x="366" y="328" type="line"/>
      <point x="384" y="458" type="line"/>
      <point x="412" y="458" type="line" smooth="yes"/>
      <point x="446" y="458"/>
      <point x="457" y="437"/>
      <point x="457" y="408" type="curve" smooth="yes"/>
      <point x="457" y="357"/>
      <point x="428" y="328"/>
      <point x="394" y="328" type="curve" smooth="yes"/>
    </contour>
  </outline>
</glyph>
<glyph name="Q" format="2">
  <advance width="765"/>
  <unicode hex="0051"/>
  <guideline x="783" y="297" angle="82.04" identifier="kRPqQ8vboa"/>
  <outline>
    <contour>
      <point x="583" y="-171" type="curve"/>
      <point x="741" y="0" type="line"/>
      <point x="645" y="40"/>
      <point x="557" y="94"/>
      <point x="489" y="176" type="curve"/>
      <point x="334" y="22" type="line"/>
      <point x="401" y="-59"/>
      <point x="479" y="-121"/>
    </contour>
    <component base="O"/>
  </outline>
</glyph>
<glyph name="R" format="2">
  <advance width="717"/>
  <unicode hex="0052"/>
  <anchor x="409" y="642" name="top"/>
  <anchor x="375" y="16" name="bottom"/>
  <outline>
    <contour>
      <point x="44" y="0" type="line"/>
      <point x="320" y="0" type="line"/>
      <point x="351" y="225" type="line"/>
      <point x="364" y="225" type="line" smooth="yes"/>
      <point x="397" y="225"/>
      <point x="414" y="213"/>
      <point x="415" y="183" type="curve" smooth="yes"/>
      <point x="421" y="0" type="line"/>
      <point x="701" y="0" type="line"/>
      <point x="690" y="192" type="line" smooth="yes"/>
      <point x="685" y="264"/>
      <point x="636" y="309"/>
      <point x="544" y="325" type="curve"/>
      <point x="541" y="305" type="line"/>
      <point x="660" y="320"/>
      <point x="733" y="388"/>
      <point x="733" y="483" type="curve" smooth="yes"/>
      <point x="733" y="599"/>
      <point x="661" y="658"/>
      <point x="519" y="658" type="curve" smooth="yes"/>
      <point x="136" y="658" type="line"/>
    </contour>
    <contour>
      <point x="374" y="381" type="line"/>
      <point x="389" y="486" type="line"/>
      <point x="413" y="486" type="line" smooth="yes"/>
      <point x="450" y="486"/>
      <point x="464" y="472"/>
      <point x="464" y="445" type="curve" smooth="yes"/>
      <point x="464" y="407"/>
      <point x="436" y="381"/>
      <point x="398" y="381" type="curve" smooth="yes"/>
    </contour>
  </outline>
</glyph>
<glyph name="S" format="2">
  <advance width="636"/>
  <unicode hex="0053"/>
  <anchor x="394" y="654" name="top"/>
  <anchor x="330" y="5" name="bottom"/>
  <outline>
    <contour>
      <point x="308" y="-18" type="curve" smooth="yes"/>
      <point x="517" y="-18"/>
      <point x="642" y="80"/>
      <point x="642" y="235" type="curve" smooth="yes"/>
      <point x="642" y="345"/>
      <point x="571" y="406"/>
      <point x="399" y="437" type="curve" smooth="yes"/>
      <point x="388" y="439" type="line" smooth="yes"/>
      <point x="367" y="443"/>
      <point x="359" y="449"/>
      <point x="359" y="461" type="curve" smooth="yes"/>
      <point x="359" y="478"/>
      <point x="378" y="485"/>
      <point x="423" y="485" type="curve" smooth="yes"/>
      <point x="489" y="485"/>
      <point x="557" y="468"/>
      <point x="625" y="433" type="curve"/>
      <point x="655" y="646" type="line"/>
      <point x="560" y="667"/>
      <point x="487" y="676"/>
      <point x="404" y="676" type="curve" smooth="yes"/>
      <point x="213" y="676"/>
      <point x="87" y="586"/>
      <point x="87" y="428" type="curve" smooth="yes"/>
      <point x="87" y="311"/>
      <point x="156" y="256"/>
      <point x="326" y="225" type="curve" smooth="yes"/>
      <point x="337" y="223" type="line" smooth="yes"/>
      <point x="358" y="219"/>
      <point x="366" y="214"/>
      <point x="366" y="202" type="curve" smooth="yes"/>
      <point x="366" y="185"/>
      <point x="349" y="176"/>
      <point x="296" y="176" type="curve" smooth="yes"/>
      <point x="219" y="176"/>
      <point x="153" y="192"/>
      <point x="69" y="233" type="curve"/>
      <point x="40" y="26" type="line"/>
      <point x="135" y="-5"/>
      <point x="213" y="-18"/>
    </contour>
  </outline>
</glyph>
<glyph name="T" format="2">
  <advance width="565"/>
  <unicode hex="0054"/>
  <anchor x="372" y="642" name="top"/>
  <anchor x="287" y="16" name="bottom"/>
  <outline>
    <contour>
      <point x="144" y="0" type="line"/>
      <point x="420" y="0" type="line"/>
      <point x="482" y="438" type="line"/>
      <point x="606" y="438" type="line"/>
      <point x="636" y="658" type="line"/>
      <point x="112" y="658" type="line"/>
      <point x="82" y="438" type="line"/>
      <point x="206" y="438" type="line"/>
    </contour>
  </outline>
</glyph>
<glyph name="U" format="2">
  <advance width="719"/>
  <unicode hex="0055"/>
  <anchor x="456" y="642" name="top"/>
  <outline>
    <contour>
      <point x="374" y="-18" type="curve" smooth="yes"/>
      <point x="569" y="-18"/>
      <point x="690" y="82"/>
      <point x="714" y="253" type="curve" smooth="yes"/>
      <point x="770" y="658" type="line"/>
      <point x="508" y="658" type="line"/>
      <point x="454" y="269" type="line" smooth="yes"/>
      <point x="449" y="232"/>
      <point x="430" y="210"/>
      <point x="398" y="210" type="curve" smooth="yes"/>
      <point x="364" y="210"/>
      <point x="349" y="232"/>
      <point x="354" y="269" type="curve" smooth="yes"/>
      <point x="408" y="658" type="line"/>
      <point x="132" y="658" type="line"/>
      <point x="76" y="253" type="line" smooth="yes"/>
      <point x="52" y="82"/>
      <point x="155" y="-18"/>
    </contour>
  </outline>
</glyph>
<glyph name="V" format="2">
  <advance width="727"/>
  <unicode hex="0056"/>
  <outline>
    <contour>
      <point x="184" y="0" type="line"/>
      <point x="543" y="0" type="line"/>
      <point x="807" y="658" type="line"/>
      <point x="541" y="658" type="line"/>
      <point x="444" y="360" type="line"/>
      <point x="355" y="67" type="line"/>
      <point x="410" y="67" type="line"/>
      <point x="405" y="360" type="line"/>
      <point x="390" y="658" type="line"/>
      <point x="104" y="658" type="line"/>
    </contour>
  </outline>
</glyph>
<glyph name="W" format="2">
  <advance width="1051"/>
  <unicode hex="0057"/>
  <anchor x="627" y="642" name="top"/>
  <outline>
    <contour>
      <point x="116" y="0" type="line"/>
      <point x="478" y="0" type="line"/>
      <point x="543" y="238" type="line"/>
      <point x="631" y="597" type="line"/>
      <point x="586" y="597" type="line"/>
      <point x="571" y="238" type="line"/>
      <point x="570" y="0" type="line"/>
      <point x="935" y="0" type="line"/>
      <point x="1131" y="658" type="line"/>
      <point x="879" y="658" type="line"/>
      <point x="805" y="358" type="line"/>
      <point x="738" y="67" type="line"/>
      <point x="758" y="67" type="line"/>
      <point x="775" y="358" type="line"/>
      <point x="787" y="658" type="line"/>
      <point x="469" y="658" type="line"/>
      <point x="398" y="360" type="line"/>
      <point x="329" y="59" type="line"/>
      <point x="349" y="59" type="line"/>
      <point x="367" y="360" type="line"/>
      <point x="376" y="658" type="line"/>
      <point x="104" y="658" type="line"/>
    </contour>
  </outline>
</glyph>
<glyph name="X" format="2">
  <advance width="713"/>
  <unicode hex="0058"/>
  <outline>
    <contour>
      <point x="16" y="0" type="line"/>
      <point x="288" y="0" type="line"/>
      <point x="347" y="120" type="line"/>
      <point x="400" y="247" type="line"/>
      <point x="554" y="266" type="line"/>
      <point x="788" y="658" type="line"/>
      <point x="516" y="658" type="line"/>
      <point x="462" y="543" type="line"/>
      <point x="409" y="413" type="line"/>
      <point x="258" y="395" type="line"/>
    </contour>
    <contour>
      <point x="409" y="0" type="line"/>
      <point x="697" y="0" type="line"/>
      <point x="590" y="394" type="line"/>
      <point x="441" y="414" type="line"/>
      <point x="422" y="543" type="line"/>
      <point x="400" y="658" type="line"/>
      <point x="112" y="658" type="line"/>
      <point x="220" y="267" type="line"/>
      <point x="367" y="246" type="line"/>
      <point x="386" y="119" type="line"/>
    </contour>
  </outline>
</glyph>
<glyph name="Y" format="2">
  <advance width="699"/>
  <unicode hex="0059"/>
  <anchor x="447" y="642" name="top"/>
  <outline>
    <contour>
      <point x="210" y="0" type="line"/>
      <point x="486" y="0" type="line"/>
      <point x="517" y="220" type="line"/>
      <point x="490" y="121" type="line"/>
      <point x="781" y="658" type="line"/>
      <point x="505" y="658" type="line"/>
      <point x="448" y="508" type="line"/>
      <point x="368" y="274" type="line"/>
      <point x="423" y="274" type="line"/>
      <point x="407" y="508" type="line"/>
      <point x="392" y="658" type="line"/>
      <point x="102" y="658" type="line"/>
      <point x="243" y="120" type="line"/>
      <point x="241" y="219" type="line"/>
    </contour>
  </outline>
</glyph>
<glyph name="Z" format="2">
  <advance width="657"/>
  <unicode hex="005A"/>
  <anchor x="415" y="642" name="top"/>
  <outline>
    <contour>
      <point x="36" y="0" type="line"/>
      <point x="621" y="0" type="line"/>
      <point x="652" y="220" type="line"/>
      <point x="366" y="220" type="line"/>
      <point x="350" y="126" type="line"/>
      <point x="494" y="283" type="line"/>
      <point x="695" y="526" type="line"/>
      <point x="713" y="658" type="line"/>
      <point x="130" y="658" type="line"/>
      <point x="99" y="438" type="line"/>
      <point x="389" y="438" type="line"/>
      <point x="404" y="532" type="line"/>
      <point x="262" y="376" type="line"/>
      <point x="55" y="132" type="line"/>
    </contour>
  </outline>
</glyph>
<glyph name="bracketleft" format="2">
  <advance width="448"/>
  <unicode hex="005B"/>
  <outline>
    <contour>
      <point x="33" y="-220" type="line"/>
      <point x="365" y="-220" type="line"/>
      <point x="390" y="-38" type="line"/>
      <point x="302" y="-38" type="line"/>
      <point x="382" y="534" type="line"/>
      <point x="470" y="534" type="line"/>
      <point x="495" y="716" type="line"/>
      <point x="164" y="716" type="line"/>
    </contour>
  </outline>
</glyph>
<glyph name="bracketright" format="2">
  <advance width="447"/>
  <unicode hex="005D"/>
  <outline>
    <contour>
      <point x="22" y="-220" type="line"/>
      <point x="352" y="-220" type="line"/>
      <point x="483" y="716" type="line"/>
      <point x="152" y="716" type="line"/>
      <point x="127" y="534" type="line"/>
      <point x="215" y="534" type="line"/>
      <point x="135" y="-38" type="line"/>
      <point x="47" y="-38" type="line"/>
    </contour>
  </outline>
</glyph>
<glyph name="a" format="2">
  <advance width="639"/>
  <unicode hex="0061"/>
  <anchor x="424" y="502" name="top"/>
  <anchor x="606" y="16" name="ogonek"/>
  <outline>
    <contour>
      <point x="220" y="-12" type="curve" smooth="yes"/>
      <point x="289" y="-12"/>
      <point x="343" y="22"/>
      <point x="377" y="92" type="curve"/>
      <point x="377" y="69" type="line" smooth="yes"/>
      <point x="377" y="47"/>
      <point x="377" y="26"/>
      <point x="377" y="0" type="curve"/>
      <point x="607" y="0" type="line"/>
      <point x="607" y="57"/>
      <point x="609" y="125"/>
      <point x="617" y="180" type="curve" smooth="yes"/>
      <point x="661" y="491" type="line"/>
      <point x="587" y="506"/>
      <point x="505" y="514"/>
      <point x="433" y="514" type="curve" smooth="yes"/>
      <point x="213" y="514"/>
      <point x="49" y="374"/>
      <point x="49" y="187" type="curve" smooth="yes"/>
      <point x="49" y="59"/>
      <point x="117" y="-12"/>
    </contour>
    <contour>
      <point x="335" y="184" type="curve" smooth="yes"/>
      <point x="316" y="184"/>
      <point x="305" y="204"/>
      <point x="305" y="230" type="curve" smooth="yes"/>
      <point x="305" y="285"/>
      <point x="339" y="328"/>
      <point x="370" y="328" type="curve" smooth="yes"/>
      <point x="378" y="328"/>
      <point x="383" y="327"/>
      <point x="389" y="325" type="curve"/>
      <point x="383" y="283" type="line" smooth="yes"/>
      <point x="371" y="202"/>
      <point x="353" y="184"/>
    </contour>
  </outline>
</glyph>
<glyph name="b" format="2">
  <advance width="628"/>
  <unicode hex="0062"/>
  <outline>
    <contour>
      <point x="269" y="-10" type="curve" smooth="yes"/>
      <point x="501" y="-10"/>
      <point x="646" y="121"/>
      <point x="646" y="332" type="curve" smooth="yes"/>
      <point x="646" y="445"/>
      <point x="586" y="514"/>
      <point x="489" y="514" type="curve" smooth="yes"/>
      <point x="426" y="514"/>
      <point x="373" y="482"/>
      <point x="345" y="438" type="curve"/>
      <point x="354" y="490" type="line"/>
      <point x="386" y="716" type="line"/>
      <point x="136" y="716" type="line"/>
      <point x="38" y="18" type="line"/>
      <point x="104" y="-1"/>
      <point x="181" y="-10"/>
    </contour>
    <contour>
      <point x="330" y="161" type="curve" smooth="yes"/>
      <point x="319" y="161"/>
      <point x="308" y="164"/>
      <point x="302" y="167" type="curve"/>
      <point x="308" y="212" type="line" smooth="yes"/>
      <point x="318" y="284"/>
      <point x="337" y="320"/>
      <point x="365" y="320" type="curve" smooth="yes"/>
      <point x="381" y="320"/>
      <point x="392" y="304"/>
      <point x="392" y="278" type="curve" smooth="yes"/>
      <point x="392" y="203"/>
      <point x="361" y="161"/>
    </contour>
  </outline>
</glyph>
<glyph name="c" format="2">
  <advance width="462"/>
  <unicode hex="0063"/>
  <anchor x="341" y="498" name="top"/>
  <anchor x="267" y="16" name="bottom"/>
  <outline>
    <contour>
      <point x="303" y="-12" type="curve" smooth="yes"/>
      <point x="351" y="-12"/>
      <point x="407" y="1"/>
      <point x="441" y="21" type="curve"/>
      <point x="470" y="226" type="line"/>
      <point x="441" y="207"/>
      <point x="404" y="195"/>
      <point x="374" y="195" type="curve" smooth="yes"/>
      <point x="336" y="195"/>
      <point x="313" y="215"/>
      <point x="313" y="247" type="curve" smooth="yes"/>
      <point x="313" y="287"/>
      <point x="340" y="310"/>
      <point x="385" y="310" type="curve" smooth="yes"/>
      <point x="414" y="310"/>
      <point x="451" y="299"/>
      <point x="478" y="286" type="curve"/>
      <point x="507" y="494" type="line"/>
      <point x="466" y="509"/>
      <point x="410" y="518"/>
      <point x="370" y="518" type="curve" smooth="yes"/>
      <point x="192" y="518"/>
      <point x="59" y="400"/>
      <point x="59" y="221" type="curve" smooth="yes"/>
      <point x="59" y="77"/>
      <point x="163" y="-12"/>
    </contour>
  </outline>
</glyph>
<glyph name="d" format="2">
  <advance width="648"/>
  <unicode hex="0064"/>
  <anchor x="850" y="700" name="caron.vert"/>
  <outline>
    <contour>
      <point x="223" y="-12" type="curve" smooth="yes"/>
      <point x="291" y="-12"/>
      <point x="346" y="21"/>
      <point x="380" y="92" type="curve"/>
      <point x="380" y="69" type="line" smooth="yes"/>
      <point x="380" y="46"/>
      <point x="380" y="25"/>
      <point x="380" y="0" type="curve"/>
      <point x="612" y="0" type="line"/>
      <point x="612" y="57"/>
      <point x="614" y="125"/>
      <point x="622" y="180" type="curve" smooth="yes"/>
      <point x="697" y="716" type="line"/>
      <point x="441" y="716" type="line"/>
      <point x="413" y="514" type="line"/>
      <point x="408" y="514"/>
      <point x="403" y="514"/>
      <point x="398" y="514" type="curve" smooth="yes"/>
      <point x="201" y="514"/>
      <point x="54" y="389"/>
      <point x="54" y="187" type="curve" smooth="yes"/>
      <point x="54" y="59"/>
      <point x="121" y="-12"/>
    </contour>
    <contour>
      <point x="329" y="190" type="curve" smooth="yes"/>
      <point x="313" y="190"/>
      <point x="302" y="206"/>
      <point x="302" y="232" type="curve" smooth="yes"/>
      <point x="302" y="307"/>
      <point x="333" y="349"/>
      <point x="364" y="349" type="curve" smooth="yes"/>
      <point x="375" y="349"/>
      <point x="386" y="346"/>
      <point x="392" y="343" type="curve"/>
      <point x="386" y="298" type="line" smooth="yes"/>
      <point x="376" y="226"/>
      <point x="357" y="190"/>
    </contour>
  </outline>
</glyph>
<glyph name="e" format="2">
  <advance width="567"/>
  <unicode hex="0065"/>
  <anchor x="372" y="502" name="top"/>
  <outline>
    <contour>
      <point x="336" y="-20" type="curve" smooth="yes"/>
      <point x="411" y="-20"/>
      <point x="478" y="-9"/>
      <point x="535" y="14" type="curve"/>
      <point x="564" y="207" type="line"/>
      <point x="512" y="175"/>
      <point x="455" y="155"/>
      <point x="402" y="155" type="curve" smooth="yes"/>
      <point x="330" y="155"/>
      <point x="307" y="174"/>
      <point x="314" y="225" type="curve" smooth="yes"/>
      <point x="323" y="287" type="line" smooth="yes"/>
      <point x="332" y="352"/>
      <point x="348" y="378"/>
      <point x="378" y="378" type="curve" smooth="yes"/>
      <point x="393" y="378"/>
      <point x="409" y="364"/>
      <point x="409" y="345" type="curve" smooth="yes"/>
      <point x="409" y="316"/>
      <point x="386" y="291"/>
      <point x="349" y="290" type="curve" smooth="yes"/>
      <point x="274" y="288" type="line"/>
      <point x="274" y="197" type="line"/>
      <point x="349" y="199" type="line" smooth="yes"/>
      <point x="516" y="203"/>
      <point x="600" y="258"/>
      <point x="600" y="360" type="curve" smooth="yes"/>
      <point x="600" y="456"/>
      <point x="515" y="522"/>
      <point x="378" y="522" type="curve" smooth="yes"/>
      <point x="176" y="522"/>
      <point x="58" y="392"/>
      <point x="58" y="216" type="curve" smooth="yes"/>
      <point x="58" y="80"/>
      <point x="161" y="-20"/>
    </contour>
  </outline>
</glyph>
<glyph name="g" format="2">
  <advance width="635"/>
  <unicode hex="0067"/>
  <anchor x="419" y="492" name="top"/>
  <outline>
    <contour>
      <point x="258" y="-220" type="curve" smooth="yes"/>
      <point x="444" y="-220"/>
      <point x="578" y="-150"/>
      <point x="601" y="15" type="curve" smooth="yes"/>
      <point x="668" y="491" type="line"/>
      <point x="582" y="506"/>
      <point x="503" y="514"/>
      <point x="430" y="514" type="curve" smooth="yes"/>
      <point x="182" y="514"/>
      <point x="56" y="392"/>
      <point x="56" y="196" type="curve" smooth="yes"/>
      <point x="56" y="72"/>
      <point x="124" y="2"/>
      <point x="227" y="2" type="curve" smooth="yes"/>
      <point x="279" y="2"/>
      <point x="315" y="14"/>
      <point x="354" y="55" type="curve"/>
      <point x="350" y="29" type="line" smooth="yes"/>
      <point x="343" y="-18"/>
      <point x="290" y="-44"/>
      <point x="228" y="-44" type="curve" smooth="yes"/>
      <point x="173" y="-44"/>
      <point x="110" y="-27"/>
      <point x="64" y="3" type="curve"/>
      <point x="37" y="-187" type="line"/>
      <point x="106" y="-206"/>
      <point x="189" y="-219"/>
    </contour>
    <contour>
      <point x="337" y="170" type="curve" smooth="yes"/>
      <point x="321" y="170"/>
      <point x="310" y="186"/>
      <point x="310" y="212" type="curve" smooth="yes"/>
      <point x="310" y="287"/>
      <point x="341" y="329"/>
      <point x="372" y="329" type="curve" smooth="yes"/>
      <point x="383" y="329"/>
      <point x="394" y="326"/>
      <point x="400" y="323" type="curve"/>
      <point x="394" y="278" type="line" smooth="yes"/>
      <point x="384" y="206"/>
      <point x="365" y="170"/>
    </contour>
  </outline>
</glyph>
<glyph name="h" format="2">
  <advance width="632"/>
  <unicode hex="0068"/>
  <anchor x="261" y="686" name="top"/>
  <outline>
    <contour>
      <point x="36" y="0" type="line"/>
      <point x="286" y="0" type="line"/>
      <point x="320" y="236" type="line" smooth="yes"/>
      <point x="327" y="290"/>
      <point x="345" y="317"/>
      <point x="369" y="317" type="curve" smooth="yes"/>
      <point x="381" y="317"/>
      <point x="392" y="309"/>
      <point x="388" y="286" type="curve" smooth="yes"/>
      <point x="360" y="130" type="line" smooth="yes"/>
      <point x="351" y="82"/>
      <point x="348" y="38"/>
      <point x="348" y="0" type="curve"/>
      <point x="600" y="0" type="line"/>
      <point x="600" y="40"/>
      <point x="604" y="84"/>
      <point x="612" y="130" type="curve" smooth="yes"/>
      <point x="646" y="332" type="line" smooth="yes"/>
      <point x="665" y="447"/>
      <point x="614" y="518"/>
      <point x="511" y="518" type="curve" smooth="yes"/>
      <point x="448" y="518"/>
      <point x="385" y="485"/>
      <point x="347" y="431" type="curve"/>
      <point x="351" y="459"/>
      <point x="355" y="486"/>
      <point x="358" y="510" type="curve" smooth="yes"/>
      <point x="387" y="716" type="line"/>
      <point x="137" y="716" type="line"/>
    </contour>
  </outline>
</glyph>
<glyph name="i" format="2">
  <advance width="328"/>
  <unicode hex="0069"/>
  <anchor x="213" y="498" name="top"/>
  <anchor x="292" y="16" name="ogonek"/>
  <outline>
    <contour>
      <point x="42" y="0" type="curve"/>
      <point x="292" y="0" type="line"/>
      <point x="292" y="43"/>
      <point x="297" y="83"/>
      <point x="304" y="130" type="curve" smooth="yes"/>
      <point x="356" y="502" type="line"/>
      <point x="106" y="502" type="line"/>
      <point x="54" y="130" type="line" smooth="yes"/>
      <point x="48" y="88"/>
      <point x="42" y="36"/>
    </contour>
    <contour>
      <point x="113" y="550" type="line"/>
      <point x="363" y="550" type="line"/>
      <point x="386" y="716" type="line"/>
      <point x="136" y="716" type="line"/>
    </contour>
  </outline>
</glyph>
<glyph name="j" format="2">
  <advance width="318"/>
  <unicode hex="006A"/>
  <anchor x="195" y="498" name="top"/>
  <outline>
    <contour>
      <point x="-35" y="-220" type="line" smooth="yes"/>
      <point x="166" y="-220"/>
      <point x="259" y="-155"/>
      <point x="281" y="4" type="curve" smooth="yes"/>
      <point x="351" y="502" type="line"/>
      <point x="101" y="502" type="line"/>
      <point x="31" y="4" type="line" smooth="yes"/>
      <point x="27" y="-26"/>
      <point x="15" y="-38"/>
      <point x="-7" y="-38" type="curve" smooth="yes"/>
      <point x="-15" y="-38" type="line"/>
      <point x="-43" y="-220" type="line"/>
    </contour>
    <contour>
      <point x="108" y="550" type="line"/>
      <point x="359" y="550" type="line"/>
      <point x="382" y="716" type="line"/>
      <point x="131" y="716" type="line"/>
    </contour>
  </outline>
</glyph>
<glyph name="k" format="2">
  <advance width="641"/>
  <unicode hex="006B"/>
  <anchor x="321" y="16" name="bottom"/>
  <outline>
    <contour>
      <point x="36" y="0" type="line"/>
      <point x="286" y="0" type="line"/>
      <point x="319" y="247" type="line"/>
      <point x="288" y="247" type="line"/>
      <point x="356" y="0" type="line"/>
      <point x="625" y="0" type="line"/>
      <point x="541" y="273" type="line"/>
      <point x="537" y="232" type="line"/>
      <point x="588" y="293"/>
      <point x="650" y="397"/>
      <point x="687" y="502" type="curve"/>
      <point x="435" y="502" type="line"/>
      <point x="398" y="407"/>
      <point x="339" y="313"/>
      <point x="289" y="253" type="curve"/>
      <point x="320" y="253" type="line"/>
      <point x="387" y="716" type="line"/>
      <point x="137" y="716" type="line"/>
    </contour>
  </outline>
</glyph>
<glyph name="l" format="2">
  <advance width="330"/>
  <unicode hex="006C"/>
  <anchor x="259" y="700" name="top"/>
  <anchor x="540" y="788" name="caron.vert"/>
  <anchor x="172" y="18" name="bottom"/>
  <outline>
    <contour>
      <point x="44" y="0" type="curve"/>
      <point x="294" y="0" type="line"/>
      <point x="294" y="44"/>
      <point x="299" y="94"/>
      <point x="304" y="130" type="curve" smooth="yes"/>
      <point x="386" y="716" type="line"/>
      <point x="136" y="716" type="line"/>
      <point x="54" y="130" type="line" smooth="yes"/>
      <point x="49" y="95"/>
      <point x="44" y="39"/>
    </contour>
  </outline>
</glyph>
<glyph name="m" format="2">
  <advance width="953"/>
  <unicode hex="006D"/>
  <outline>
    <contour>
      <point x="47" y="0" type="line"/>
      <point x="297" y="0" type="line"/>
      <point x="331" y="236" type="line" smooth="yes"/>
      <point x="338" y="290"/>
      <point x="356" y="317"/>
      <point x="380" y="317" type="curve" smooth="yes"/>
      <point x="392" y="317"/>
      <point x="402" y="309"/>
      <point x="399" y="286" type="curve" smooth="yes"/>
      <point x="359" y="0" type="line"/>
      <point x="609" y="0" type="line"/>
      <point x="641" y="236" type="line" smooth="yes"/>
      <point x="648" y="290"/>
      <point x="666" y="317"/>
      <point x="690" y="317" type="curve" smooth="yes"/>
      <point x="702" y="317"/>
      <point x="713" y="309"/>
      <point x="709" y="286" type="curve" smooth="yes"/>
      <point x="681" y="130" type="line" smooth="yes"/>
      <point x="672" y="82"/>
      <point x="669" y="38"/>
      <point x="669" y="0" type="curve"/>
      <point x="921" y="0" type="line"/>
      <point x="921" y="40"/>
      <point x="925" y="84"/>
      <point x="933" y="130" type="curve" smooth="yes"/>
      <point x="967" y="332" type="line" smooth="yes"/>
      <point x="987" y="447"/>
      <point x="935" y="518"/>
      <point x="832" y="518" type="curve" smooth="yes"/>
      <point x="762" y="518"/>
      <point x="698" y="480"/>
      <point x="643" y="406" type="curve"/>
      <point x="659" y="407" type="line"/>
      <point x="648" y="477"/>
      <point x="600" y="518"/>
      <point x="522" y="518" type="curve" smooth="yes"/>
      <point x="459" y="518"/>
      <point x="396" y="485"/>
      <point x="356" y="431" type="curve"/>
      <point x="356" y="446" type="line" smooth="yes"/>
      <point x="356" y="465"/>
      <point x="356" y="485"/>
      <point x="356" y="502" type="curve"/>
      <point x="106" y="502" type="line"/>
      <point x="106" y="460"/>
      <point x="104" y="409"/>
      <point x="99" y="370" type="curve" smooth="yes"/>
    </contour>
  </outline>
</glyph>
<glyph name="n" format="2">
  <advance width="643"/>
  <unicode hex="006E"/>
  <anchor x="387" y="494" name="top"/>
  <anchor x="331" y="16" name="bottom"/>
  <outline>
    <contour>
      <point x="47" y="0" type="line"/>
      <point x="297" y="0" type="line"/>
      <point x="331" y="236" type="line" smooth="yes"/>
      <point x="338" y="290"/>
      <point x="356" y="317"/>
      <point x="380" y="317" type="curve" smooth="yes"/>
      <point x="392" y="317"/>
      <point x="403" y="309"/>
      <point x="399" y="286" type="curve" smooth="yes"/>
      <point x="371" y="130" type="line" smooth="yes"/>
      <point x="363" y="82"/>
      <point x="359" y="38"/>
      <point x="359" y="0" type="curve"/>
      <point x="611" y="0" type="line"/>
      <point x="611" y="40"/>
      <point x="615" y="84"/>
      <point x="623" y="130" type="curve" smooth="yes"/>
      <point x="657" y="332" type="line" smooth="yes"/>
      <point x="677" y="447"/>
      <point x="625" y="518"/>
      <point x="522" y="518" type="curve" smooth="yes"/>
      <point x="460" y="518"/>
      <point x="397" y="486"/>
      <point x="356" y="431" type="curve"/>
      <point x="356" y="446" type="line" smooth="yes"/>
      <point x="356" y="465"/>
      <point x="356" y="485"/>
      <point x="356" y="502" type="curve"/>
      <point x="106" y="502" type="line"/>
      <point x="106" y="460"/>
      <point x="105" y="409"/>
      <point x="99" y="370" type="curve" smooth="yes"/>
    </contour>
  </outline>
</glyph>
<glyph name="o" format="2">
  <advance width="631"/>
  <unicode hex="006F"/>
  <guideline x="315" y="0" angle="22.803134981923133" name="" identifier="4bXGDtxiNW"/>
  <anchor x="382" y="502" name="top"/>
  <outline>
    <contour>
      <point x="318" y="-24" type="curve" smooth="yes"/>
      <point x="499" y="-24"/>
      <point x="643" y="94"/>
      <point x="643" y="285" type="curve" smooth="yes"/>
      <point x="643" y="433"/>
      <point x="543" y="525"/>
      <point x="383" y="525" type="curve" smooth="yes"/>
      <point x="201" y="525"/>
      <point x="58" y="407"/>
      <point x="58" y="216" type="curve" smooth="yes"/>
      <point x="58" y="68"/>
      <point x="158" y="-24"/>
    </contour>
    <contour>
      <point x="338" y="168" type="curve" smooth="yes"/>
      <point x="317" y="168"/>
      <point x="306" y="188"/>
      <point x="306" y="221" type="curve" smooth="yes"/>
      <point x="306" y="286"/>
      <point x="330" y="334"/>
      <point x="363" y="334" type="curve" smooth="yes"/>
      <point x="384" y="334"/>
      <point x="395" y="314"/>
      <point x="395" y="281" type="curve" smooth="yes"/>
      <point x="395" y="216"/>
      <point x="371" y="168"/>
    </contour>
  </outline>
</glyph>
<glyph name="p" format="2">
  <advance width="639"/>
  <unicode hex="0070"/>
  <outline>
    <contour>
      <point x="18" y="-204" type="line"/>
      <point x="268" y="-204" type="line"/>
      <point x="295" y="-8" type="line"/>
      <point x="315" y="-11"/>
      <point x="338" y="-12"/>
      <point x="362" y="-12" type="curve" smooth="yes"/>
      <point x="531" y="-12"/>
      <point x="657" y="136"/>
      <point x="657" y="332" type="curve" smooth="yes"/>
      <point x="657" y="445"/>
      <point x="596" y="514"/>
      <point x="496" y="514" type="curve" smooth="yes"/>
      <point x="426" y="514"/>
      <point x="367" y="478"/>
      <point x="322" y="414" type="curve"/>
      <point x="322" y="438" type="line" smooth="yes"/>
      <point x="322" y="459"/>
      <point x="322" y="479"/>
      <point x="322" y="502" type="curve"/>
      <point x="106" y="502" type="line"/>
      <point x="106" y="457"/>
      <point x="104" y="412"/>
      <point x="98" y="371" type="curve" smooth="yes"/>
    </contour>
    <contour>
      <point x="343" y="151" type="curve" smooth="yes"/>
      <point x="332" y="151"/>
      <point x="321" y="154"/>
      <point x="315" y="157" type="curve"/>
      <point x="321" y="202" type="line" smooth="yes"/>
      <point x="331" y="274"/>
      <point x="350" y="310"/>
      <point x="378" y="310" type="curve" smooth="yes"/>
      <point x="394" y="310"/>
      <point x="405" y="294"/>
      <point x="405" y="268" type="curve" smooth="yes"/>
      <point x="405" y="193"/>
      <point x="374" y="151"/>
    </contour>
  </outline>
</glyph>
<glyph name="q" format="2">
  <advance width="634"/>
  <unicode hex="0071"/>
  <outline>
    <contour>
      <point x="319" y="-204" type="line"/>
      <point x="569" y="-204" type="line"/>
      <point x="666" y="491" type="line"/>
      <point x="592" y="506"/>
      <point x="510" y="514"/>
      <point x="438" y="514" type="curve" smooth="yes"/>
      <point x="212" y="514"/>
      <point x="54" y="383"/>
      <point x="54" y="187" type="curve" smooth="yes"/>
      <point x="54" y="59"/>
      <point x="122" y="-12"/>
      <point x="225" y="-12" type="curve" smooth="yes"/>
      <point x="276" y="-12"/>
      <point x="320" y="5"/>
      <point x="354" y="46" type="curve"/>
    </contour>
    <contour>
      <point x="330" y="174" type="curve" smooth="yes"/>
      <point x="314" y="174"/>
      <point x="303" y="190"/>
      <point x="303" y="220" type="curve" smooth="yes"/>
      <point x="303" y="276"/>
      <point x="330" y="333"/>
      <point x="368" y="333" type="curve" smooth="yes"/>
      <point x="379" y="333"/>
      <point x="387" y="330"/>
      <point x="393" y="327" type="curve"/>
      <point x="387" y="282" type="line" smooth="yes"/>
      <point x="377" y="210"/>
      <point x="358" y="174"/>
    </contour>
  </outline>
</glyph>
<glyph name="r" format="2">
  <advance width="470"/>
  <unicode hex="0072"/>
  <anchor x="305" y="486" name="top"/>
  <anchor x="180" y="18" name="bottom"/>
  <outline>
    <contour>
      <point x="47" y="0" type="line"/>
      <point x="297" y="0" type="line"/>
      <point x="319" y="160" type="line" smooth="yes"/>
      <point x="330" y="238"/>
      <point x="366" y="277"/>
      <point x="426" y="277" type="curve" smooth="yes"/>
      <point x="447" y="277"/>
      <point x="468" y="268"/>
      <point x="492" y="255" type="curve"/>
      <point x="528" y="504" type="line"/>
      <point x="511" y="511"/>
      <point x="493" y="514"/>
      <point x="474" y="514" type="curve" smooth="yes"/>
      <point x="422" y="514"/>
      <point x="387" y="488"/>
      <point x="356" y="423" type="curve"/>
      <point x="356" y="446" type="line" smooth="yes"/>
      <point x="356" y="466"/>
      <point x="356" y="484"/>
      <point x="356" y="502" type="curve"/>
      <point x="106" y="502" type="line"/>
      <point x="106" y="460"/>
      <point x="105" y="409"/>
      <point x="99" y="370" type="curve" smooth="yes"/>
    </contour>
  </outline>
</glyph>
<glyph name="s" format="2">
  <advance width="521"/>
  <unicode hex="0073"/>
  <anchor x="328" y="494" name="top"/>
  <anchor x="244" y="8" name="bottom"/>
  <outline>
    <contour>
      <point x="227" y="-16" type="curve" smooth="yes"/>
      <point x="431" y="-16"/>
      <point x="520" y="67"/>
      <point x="520" y="182" type="curve" smooth="yes"/>
      <point x="520" y="249"/>
      <point x="478" y="309"/>
      <point x="387" y="330" type="curve" smooth="yes"/>
      <point x="344" y="340" type="line" smooth="yes"/>
      <point x="323" y="345"/>
      <point x="315" y="349"/>
      <point x="315" y="360" type="curve" smooth="yes"/>
      <point x="315" y="374"/>
      <point x="330" y="380"/>
      <point x="367" y="380" type="curve" smooth="yes"/>
      <point x="412" y="380"/>
      <point x="467" y="365"/>
      <point x="512" y="336" type="curve"/>
      <point x="532" y="492" type="line"/>
      <point x="466" y="508"/>
      <point x="398" y="516"/>
      <point x="330" y="516" type="curve" smooth="yes"/>
      <point x="152" y="516"/>
      <point x="71" y="433"/>
      <point x="71" y="319" type="curve" smooth="yes"/>
      <point x="71" y="251"/>
      <point x="114" y="195"/>
      <point x="204" y="174" type="curve" smooth="yes"/>
      <point x="247" y="164" type="line" smooth="yes"/>
      <point x="264" y="160"/>
      <point x="276" y="154"/>
      <point x="276" y="144" type="curve" smooth="yes"/>
      <point x="276" y="132"/>
      <point x="257" y="126"/>
      <point x="225" y="126" type="curve" smooth="yes"/>
      <point x="166" y="126"/>
      <point x="114" y="140"/>
      <point x="60" y="166" type="curve"/>
      <point x="40" y="9" type="line"/>
      <point x="102" y="-7"/>
      <point x="167" y="-16"/>
    </contour>
  </outline>
</glyph>
<glyph name="t" format="2">
  <advance width="406"/>
  <unicode hex="0074"/>
  <anchor x="226" y="8" name="bottom"/>
  <anchor x="568" y="757" name="caron.vert"/>
  <outline>
    <contour>
      <point x="248" y="-12" type="curve" smooth="yes"/>
      <point x="296" y="-12"/>
      <point x="344" y="-6"/>
      <point x="381" y="5" type="curve"/>
      <point x="405" y="180" type="line"/>
      <point x="391" y="175"/>
      <point x="378" y="174"/>
      <point x="366" y="174" type="curve" smooth="yes"/>
      <point x="353" y="174"/>
      <point x="339" y="182"/>
      <point x="342" y="203" type="curve" smooth="yes"/>
      <point x="359" y="322" type="line"/>
      <point x="426" y="322" type="line"/>
      <point x="452" y="502" type="line"/>
      <point x="385" y="502" type="line"/>
      <point x="402" y="626" type="line"/>
      <point x="152" y="626" type="line"/>
      <point x="135" y="502" type="line"/>
      <point x="91" y="502" type="line"/>
      <point x="65" y="322" type="line"/>
      <point x="109" y="322" type="line"/>
      <point x="86" y="159" type="line" smooth="yes"/>
      <point x="71" y="54"/>
      <point x="131" y="-12"/>
    </contour>
  </outline>
</glyph>
<glyph name="u" format="2">
  <advance width="647"/>
  <unicode hex="0075"/>
  <anchor x="388" y="486" name="top"/>
  <anchor x="607" y="16" name="ogonek"/>
  <outline>
    <contour>
      <point x="199" y="-16" type="curve" smooth="yes"/>
      <point x="264" y="-16"/>
      <point x="314" y="9"/>
      <point x="361" y="71" type="curve"/>
      <point x="361" y="56" type="line" smooth="yes"/>
      <point x="361" y="37"/>
      <point x="361" y="17"/>
      <point x="361" y="0" type="curve"/>
      <point x="611" y="0" type="line"/>
      <point x="611" y="42"/>
      <point x="613" y="93"/>
      <point x="618" y="132" type="curve" smooth="yes"/>
      <point x="670" y="502" type="line"/>
      <point x="420" y="502" type="line"/>
      <point x="386" y="266" type="line" smooth="yes"/>
      <point x="378" y="212"/>
      <point x="362" y="185"/>
      <point x="339" y="185" type="curve" smooth="yes"/>
      <point x="326" y="185"/>
      <point x="314" y="193"/>
      <point x="318" y="216" type="curve" smooth="yes"/>
      <point x="346" y="372" type="line" smooth="yes"/>
      <point x="355" y="420"/>
      <point x="358" y="464"/>
      <point x="358" y="502" type="curve"/>
      <point x="106" y="502" type="line"/>
      <point x="106" y="462"/>
      <point x="102" y="418"/>
      <point x="94" y="372" type="curve" smooth="yes"/>
      <point x="60" y="170" type="line" smooth="yes"/>
      <point x="41" y="55"/>
      <point x="93" y="-16"/>
    </contour>
  </outline>
</glyph>
<glyph name="v" format="2">
  <advance width="589"/>
  <unicode hex="0076"/>
  <outline>
    <contour>
      <point x="131" y="0" type="line"/>
      <point x="458" y="0" type="line"/>
      <point x="547" y="169"/>
      <point x="601" y="317"/>
      <point x="643" y="502" type="curve"/>
      <point x="421" y="502" type="line"/>
      <point x="379" y="307"/>
      <point x="336" y="165"/>
      <point x="282" y="24" type="curve"/>
      <point x="341" y="24" type="line"/>
      <point x="345" y="321" type="line"/>
      <point x="338" y="502" type="line"/>
      <point x="86" y="502" type="line"/>
    </contour>
  </outline>
</glyph>
<glyph name="w" format="2">
  <advance width="894"/>
  <unicode hex="0077"/>
  <anchor x="525" y="498" name="top"/>
  <outline>
    <contour>
      <point x="133" y="0" type="line"/>
      <point x="406" y="0" type="line"/>
      <point x="475" y="160"/>
      <point x="507" y="278"/>
      <point x="542" y="398" type="curve"/>
      <point x="488" y="398" type="line"/>
      <point x="480" y="124" type="line"/>
      <point x="480" y="0" type="line"/>
      <point x="753" y="0" type="line"/>
      <point x="833" y="157"/>
      <point x="894" y="310"/>
      <point x="948" y="502" type="curve"/>
      <point x="727" y="502" type="line"/>
      <point x="694" y="349"/>
      <point x="654" y="212"/>
      <point x="583" y="53" type="curve"/>
      <point x="644" y="53" type="line"/>
      <point x="651" y="320" type="line"/>
      <point x="651" y="502" type="line"/>
      <point x="414" y="502" type="line"/>
      <point x="372" y="306"/>
      <point x="341" y="174"/>
      <point x="290" y="53" type="curve"/>
      <point x="344" y="53" type="line"/>
      <point x="343" y="320" type="line"/>
      <point x="334" y="502" type="line"/>
      <point x="86" y="502" type="line"/>
    </contour>
  </outline>
</glyph>
<glyph name="x" format="2">
  <advance width="630"/>
  <unicode hex="0078"/>
  <outline>
    <contour>
      <point x="16" y="0" type="line"/>
      <point x="259" y="0" type="line"/>
      <point x="298" y="100" type="line"/>
      <point x="327" y="180" type="line"/>
      <point x="524" y="192" type="line"/>
      <point x="684" y="502" type="line"/>
      <point x="441" y="502" type="line"/>
      <point x="400" y="400" type="line"/>
      <point x="378" y="336" type="line"/>
      <point x="177" y="317" type="line"/>
    </contour>
    <contour>
      <point x="329" y="0" type="line"/>
      <point x="609" y="0" type="line"/>
      <point x="555" y="317" type="line"/>
      <point x="391" y="336" type="line"/>
      <point x="380" y="400" type="line"/>
      <point x="368" y="502" type="line"/>
      <point x="88" y="502" type="line"/>
      <point x="149" y="192" type="line"/>
      <point x="314" y="180" type="line"/>
      <point x="323" y="100" type="line"/>
    </contour>
  </outline>
</glyph>
<glyph name="y" format="2">
  <advance width="602"/>
  <unicode hex="0079"/>
  <anchor x="378" y="486" name="top"/>
  <outline>
    <contour>
      <point x="287" y="-8" type="line"/>
      <point x="287" y="87" type="line"/>
      <point x="234" y="2"/>
      <point x="146" y="-38"/>
      <point x="30" y="-38" type="curve" smooth="yes"/>
      <point x="13" y="-38" type="line"/>
      <point x="-12" y="-220" type="line"/>
      <point x="5" y="-220" type="line" smooth="yes"/>
      <point x="203" y="-220"/>
      <point x="359" y="-156"/>
      <point x="463" y="-22" type="curve" smooth="yes"/>
      <point x="561" y="105"/>
      <point x="622" y="273"/>
      <point x="654" y="502" type="curve"/>
      <point x="424" y="502" type="line"/>
      <point x="405" y="343"/>
      <point x="375" y="208"/>
      <point x="323" y="78" type="curve"/>
      <point x="339" y="78" type="line"/>
      <point x="344" y="320" type="line"/>
      <point x="343" y="502" type="line"/>
      <point x="78" y="502" type="line"/>
      <point x="107" y="24" type="line"/>
    </contour>
  </outline>
</glyph>
<glyph name="z" format="2">
  <advance width="577"/>
  <unicode hex="007A"/>
  <anchor x="351" y="486" name="top"/>
  <outline>
    <contour>
      <point x="30" y="0" type="line"/>
      <point x="546" y="0" type="line"/>
      <point x="573" y="190" type="line"/>
      <point x="351" y="190" type="line"/>
      <point x="339" y="106" type="line"/>
      <point x="469" y="247" type="line"/>
      <point x="602" y="399" type="line"/>
      <point x="617" y="502" type="line"/>
      <point x="101" y="502" type="line"/>
      <point x="74" y="312" type="line"/>
      <point x="296" y="312" type="line"/>
      <point x="308" y="396" type="line"/>
      <point x="176" y="255" type="line"/>
      <point x="44" y="103" type="line"/>
    </contour>
  </outline>
</glyph>
<glyph name="braceleft" format="2">
  <advance width="500"/>
  <unicode hex="007B"/>
  <outline>
    <contour>
      <point x="358" y="-220" type="curve" smooth="yes"/>
      <point x="417" y="-220" type="line"/>
      <point x="441" y="-44" type="line"/>
      <point x="425" y="-44" type="line" smooth="yes"/>
      <point x="399" y="-44"/>
      <point x="381" y="-25"/>
      <point x="390" y="16" type="curve" smooth="yes"/>
      <point x="407" y="92" type="line" smooth="yes"/>
      <point x="424" y="166"/>
      <point x="387" y="223"/>
      <point x="311" y="246" type="curve"/>
      <point x="312" y="249" type="line"/>
      <point x="395" y="270"/>
      <point x="447" y="327"/>
      <point x="452" y="404" type="curve" smooth="yes"/>
      <point x="457" y="480" type="line" smooth="yes"/>
      <point x="460" y="520"/>
      <point x="482" y="540"/>
      <point x="507" y="540" type="curve" smooth="yes"/>
      <point x="523" y="540" type="line"/>
      <point x="547" y="716" type="line"/>
      <point x="488" y="716" type="line" smooth="yes"/>
      <point x="332" y="716"/>
      <point x="225" y="636"/>
      <point x="215" y="515" type="curve" smooth="yes"/>
      <point x="207" y="421" type="line" smooth="yes"/>
      <point x="202" y="367"/>
      <point x="163" y="338"/>
      <point x="99" y="337" type="curve"/>
      <point x="75" y="159" type="line"/>
      <point x="139" y="157"/>
      <point x="170" y="129"/>
      <point x="159" y="75" type="curve" smooth="yes"/>
      <point x="139" y="-19" type="line" smooth="yes"/>
      <point x="113" y="-140"/>
      <point x="202" y="-220"/>
    </contour>
  </outline>
</glyph>
<glyph name="braceright" format="2">
  <advance width="500"/>
  <unicode hex="007D"/>
  <outline>
    <contour>
      <point x="22" y="-220" type="line"/>
      <point x="81" y="-220" type="line" smooth="yes"/>
      <point x="237" y="-220"/>
      <point x="344" y="-140"/>
      <point x="354" y="-18" type="curve" smooth="yes"/>
      <point x="362" y="76" type="line" smooth="yes"/>
      <point x="367" y="130"/>
      <point x="406" y="158"/>
      <point x="470" y="160" type="curve"/>
      <point x="494" y="336" type="line"/>
      <point x="430" y="338"/>
      <point x="399" y="366"/>
      <point x="410" y="420" type="curve" smooth="yes"/>
      <point x="430" y="514" type="line" smooth="yes"/>
      <point x="456" y="636"/>
      <point x="367" y="716"/>
      <point x="211" y="716" type="curve" smooth="yes"/>
      <point x="152" y="716" type="line"/>
      <point x="128" y="540" type="line"/>
      <point x="144" y="540" type="line" smooth="yes"/>
      <point x="169" y="540"/>
      <point x="187" y="520"/>
      <point x="178" y="480" type="curve" smooth="yes"/>
      <point x="161" y="405" type="line" smooth="yes"/>
      <point x="144" y="327"/>
      <point x="180" y="269"/>
      <point x="257" y="249" type="curve"/>
      <point x="256" y="247" type="line"/>
      <point x="174" y="224"/>
      <point x="123" y="166"/>
      <point x="118" y="91" type="curve" smooth="yes"/>
      <point x="113" y="16" type="line" smooth="yes"/>
      <point x="110" y="-24"/>
      <point x="88" y="-44"/>
      <point x="62" y="-44" type="curve" smooth="yes"/>
      <point x="46" y="-44" type="line"/>
    </contour>
  </outline>
</glyph>
<glyph name="exclamdown" format="2">
  <advance width="333"/>
  <unicode hex="00A1"/>
  <outline>
    <contour>
      <point x="15" y="-214" type="line"/>
      <point x="259" y="-214" type="line"/>
      <point x="327" y="270" type="line"/>
      <point x="83" y="270" type="line"/>
    </contour>
    <contour>
      <point x="89" y="322" type="line"/>
      <point x="333" y="322" type="line"/>
      <point x="358" y="502" type="line"/>
      <point x="114" y="502" type="line"/>
    </contour>
  </outline>
</glyph>
<glyph name="questiondown" format="2">
  <advance width="542"/>
  <unicode hex="00BF"/>
  <outline>
    <contour>
      <point x="229" y="322" type="line"/>
      <point x="473" y="322" type="line"/>
      <point x="498" y="502" type="line"/>
      <point x="254" y="502" type="line"/>
    </contour>
    <contour>
      <point x="273" y="-213" type="curve" smooth="yes"/>
      <point x="362" y="-213"/>
      <point x="416" y="-203"/>
      <point x="493" y="-177" type="curve"/>
      <point x="521" y="26" type="line"/>
      <point x="463" y="0"/>
      <point x="421" y="-10"/>
      <point x="376" y="-10" type="curve" smooth="yes"/>
      <point x="341" y="-10"/>
      <point x="318" y="4"/>
      <point x="318" y="29" type="curve" smooth="yes"/>
      <point x="318" y="50"/>
      <point x="331" y="71"/>
      <point x="364" y="99" type="curve" smooth="yes"/>
      <point x="424" y="150"/>
      <point x="448" y="198"/>
      <point x="458" y="270" type="curve"/>
      <point x="230" y="270" type="line"/>
      <point x="225" y="231"/>
      <point x="204" y="198"/>
      <point x="167" y="170" type="curve" smooth="yes"/>
      <point x="53" y="84"/>
      <point x="19" y="23"/>
      <point x="19" y="-55" type="curve" smooth="yes"/>
      <point x="19" y="-155"/>
      <point x="105" y="-213"/>
    </contour>
  </outline>
</glyph>
<glyph name="acutecmb" format="2">
  <unicode hex="0301"/>
  <anchor x="68" y="486" name="_top"/>
  <anchor x="0" y="767" name="_bottom"/>
  <outline>
    <contour>
      <point x="-10" y="558" type="line"/>
      <point x="160" y="558" type="line"/>
      <point x="321" y="734" type="line"/>
      <point x="103" y="734" type="line"/>
    </contour>
  </outline>
</glyph>
<glyph name="dieresiscmb" format="2">
  <unicode hex="0308"/>
  <anchor x="68" y="486" name="_top"/>
  <anchor x="1" y="652" name="_bottom"/>
  <outline>
    <contour>
      <point x="-102" y="558" type="line"/>
      <point x="58" y="558" type="line"/>
      <point x="80" y="718" type="line"/>
      <point x="-80" y="718" type="line"/>
    </contour>
    <contour>
      <point x="101" y="558" type="line"/>
      <point x="261" y="558" type="line"/>
      <point x="283" y="718" type="line"/>
      <point x="123" y="718" type="line"/>
    </contour>
  </outline>
</glyph>
<glyph name="Delta" format="2">
  <advance width="782"/>
  <unicode hex="0394"/>
  <unicode hex="2206"/>
  <outline>
    <contour>
      <point x="12" y="0" type="line"/>
      <point x="304" y="658" type="line"/>
      <point x="663" y="658" type="line"/>
      <point x="770" y="0" type="line"/>
    </contour>
    <contour>
      <point x="356" y="220" type="line"/>
      <point x="459" y="220" type="line"/>
      <point x="430" y="408" type="line"/>
    </contour>
  </outline>
</glyph>
<glyph name="pi" format="2">
  <advance width="669"/>
  <unicode hex="03C0"/>
  <outline>
    <contour>
      <point x="62" y="0" type="line"/>
      <point x="312" y="0" type="line"/>
      <point x="357" y="322" type="line"/>
      <point x="401" y="322" type="line"/>
      <point x="379" y="162" type="line" smooth="yes"/>
      <point x="369" y="86"/>
      <point x="372" y="44"/>
      <point x="395" y="0" type="curve"/>
      <point x="649" y="0" type="line"/>
      <point x="628" y="44"/>
      <point x="620" y="93"/>
      <point x="629" y="162" type="curve" smooth="yes"/>
      <point x="651" y="322" type="line"/>
      <point x="693" y="322" type="line"/>
      <point x="719" y="502" type="line"/>
      <point x="91" y="502" type="line"/>
      <point x="65" y="322" type="line"/>
      <point x="107" y="322" type="line"/>
    </contour>
  </outline>
</glyph>
<glyph name="endash" format="2">
  <advance width="540"/>
  <unicode hex="2013"/>
  <outline>
    <contour>
      <point x="66" y="157" type="line"/>
      <point x="518" y="157" type="line"/>
      <point x="541" y="321" type="line"/>
      <point x="89" y="321" type="line"/>
    </contour>
  </outline>
</glyph>
<glyph name="emdash" format="2">
  <advance width="1027"/>
  <unicode hex="2014"/>
  <outline>
    <contour>
      <point x="66" y="157" type="line"/>
      <point x="1005" y="157" type="line"/>
      <point x="1028" y="321" type="line"/>
      <point x="89" y="321" type="line"/>
    </contour>
  </outline>
</glyph>
<glyph name="quoteleft" format="2">
  <advance width="357"/>
  <unicode hex="2018"/>
  <outline>
    <contour>
      <point x="100" y="397" type="line"/>
      <point x="344" y="397" type="line"/>
      <point x="364" y="537" type="line" smooth="yes"/>
      <point x="376" y="619"/>
      <point x="388" y="677"/>
      <point x="423" y="756" type="curve"/>
      <point x="223" y="780" type="line"/>
      <point x="162" y="711"/>
      <point x="134" y="634"/>
      <point x="120" y="537" type="curve" smooth="yes"/>
    </contour>
  </outline>
</glyph>
<glyph name="quoteright" format="2">
  <advance width="357"/>
  <unicode hex="2019"/>
  <outline>
    <contour>
      <point x="298" y="391" type="line"/>
      <point x="359" y="460"/>
      <point x="387" y="537"/>
      <point x="401" y="634" type="curve" smooth="yes"/>
      <point x="421" y="774" type="line"/>
      <point x="177" y="774" type="line"/>
      <point x="157" y="634" type="line" smooth="yes"/>
      <point x="145" y="552"/>
      <point x="132" y="494"/>
      <point x="97" y="415" type="curve"/>
    </contour>
  </outline>
</glyph>
<glyph name="quotesinglbase" format="2">
  <advance width="358"/>
  <unicode hex="201A"/>
  <outline>
    <contour>
      <point x="222" y="-159" type="line"/>
      <point x="283" y="-90"/>
      <point x="311" y="-13"/>
      <point x="325" y="84" type="curve" smooth="yes"/>
      <point x="345" y="224" type="line"/>
      <point x="101" y="224" type="line"/>
      <point x="81" y="84" type="line" smooth="yes"/>
      <point x="69" y="2"/>
      <point x="56" y="-56"/>
      <point x="21" y="-135" type="curve"/>
    </contour>
  </outline>
</glyph>
<glyph name="quotedblleft" format="2">
  <advance width="669"/>
  <unicode hex="201C"/>
  <outline>
    <contour>
      <point x="95" y="397" type="line"/>
      <point x="339" y="397" type="line"/>
      <point x="360" y="545" type="line" smooth="yes"/>
      <point x="372" y="627"/>
      <point x="383" y="677"/>
      <point x="418" y="756" type="curve"/>
      <point x="218" y="780" type="line"/>
      <point x="157" y="711"/>
      <point x="130" y="642"/>
      <point x="116" y="545" type="curve" smooth="yes"/>
    </contour>
    <contour>
      <point x="407" y="397" type="line"/>
      <point x="651" y="397" type="line"/>
      <point x="672" y="545" type="line" smooth="yes"/>
      <point x="684" y="627"/>
      <point x="695" y="677"/>
      <point x="730" y="756" type="curve"/>
      <point x="530" y="780" type="line"/>
      <point x="469" y="711"/>
      <point x="442" y="642"/>
      <point x="428" y="545" type="curve" smooth="yes"/>
    </contour>
  </outline>
</glyph>
<glyph name="quotedblright" format="2">
  <advance width="669"/>
  <unicode hex="201D"/>
  <outline>
    <contour>
      <point x="298" y="391" type="line"/>
      <point x="359" y="460"/>
      <point x="387" y="537"/>
      <point x="401" y="634" type="curve" smooth="yes"/>
      <point x="421" y="774" type="line"/>
      <point x="177" y="774" type="line"/>
      <point x="157" y="634" type="line" smooth="yes"/>
      <point x="145" y="552"/>
      <point x="132" y="494"/>
      <point x="97" y="415" type="curve"/>
    </contour>
    <contour>
      <point x="610" y="391" type="line"/>
      <point x="671" y="460"/>
      <point x="699" y="537"/>
      <point x="713" y="634" type="curve" smooth="yes"/>
      <point x="733" y="774" type="line"/>
      <point x="489" y="774" type="line"/>
      <point x="469" y="634" type="line" smooth="yes"/>
      <point x="457" y="552"/>
      <point x="444" y="494"/>
      <point x="409" y="415" type="curve"/>
    </contour>
  </outline>
</glyph>
<glyph name="quotedblbase" format="2">
  <advance width="670"/>
  <unicode hex="201E"/>
  <outline>
    <contour>
      <point x="222" y="-159" type="line"/>
      <point x="283" y="-90"/>
      <point x="310" y="-21"/>
      <point x="324" y="76" type="curve" smooth="yes"/>
      <point x="345" y="224" type="line"/>
      <point x="101" y="224" type="line"/>
      <point x="80" y="76" type="line" smooth="yes"/>
      <point x="68" y="-6"/>
      <point x="56" y="-56"/>
      <point x="21" y="-135" type="curve"/>
    </contour>
    <contour>
      <point x="534" y="-159" type="line"/>
      <point x="595" y="-90"/>
      <point x="622" y="-21"/>
      <point x="636" y="76" type="curve" smooth="yes"/>
      <point x="657" y="224" type="line"/>
      <point x="413" y="224" type="line"/>
      <point x="392" y="76" type="line" smooth="yes"/>
      <point x="380" y="-6"/>
      <point x="368" y="-56"/>
      <point x="333" y="-135" type="curve"/>
    </contour>
  </outline>
</glyph>
<glyph name="Euro" format="2">
  <advance width="678"/>
  <unicode hex="20AC"/>
  <outline>
    <contour>
      <point x="76" y="343" type="line"/>
      <point x="529" y="343" type="line"/>
      <point x="536" y="395" type="line"/>
      <point x="83" y="395" type="line"/>
    </contour>
    <contour>
      <point x="65" y="263" type="line"/>
      <point x="518" y="263" type="line"/>
      <point x="525" y="315" type="line"/>
      <point x="72" y="315" type="line"/>
    </contour>
    <component base="C" xOffset="46"/>
  </outline>
</glyph>
<glyph name="Omega" format="2">
  <advance width="743"/>
  <unicode hex="A7B6"/>
  <unicode hex="2126"/>
  <outline>
    <contour>
      <point x="39" y="0" type="line"/>
      <point x="351" y="0" type="line"/>
      <point x="392" y="291" type="line"/>
      <point x="379" y="299"/>
      <point x="361" y="319"/>
      <point x="361" y="355" type="curve" smooth="yes"/>
      <point x="361" y="409"/>
      <point x="392" y="449"/>
      <point x="431" y="449" type="curve" smooth="yes"/>
      <point x="461" y="449"/>
      <point x="485" y="427"/>
      <point x="485" y="385" type="curve" smooth="yes"/>
      <point x="485" y="342"/>
      <point x="453" y="299"/>
      <point x="432" y="291" type="curve"/>
      <point x="391" y="0" type="line"/>
      <point x="703" y="0" type="line"/>
      <point x="734" y="220" type="line"/>
      <point x="533" y="220" type="line"/>
      <point x="583" y="195" type="line"/>
      <point x="593" y="270" type="line"/>
      <point x="548" y="236" type="line"/>
      <point x="681" y="243"/>
      <point x="780" y="336"/>
      <point x="780" y="452" type="curve" smooth="yes"/>
      <point x="780" y="592"/>
      <point x="653" y="678"/>
      <point x="448" y="678" type="curve" smooth="yes"/>
      <point x="224" y="678"/>
      <point x="85" y="578"/>
      <point x="85" y="417" type="curve" smooth="yes"/>
      <point x="85" y="318"/>
      <point x="160" y="240"/>
      <point x="260" y="234" type="curve"/>
      <point x="225" y="269" type="line"/>
      <point x="216" y="204" type="line"/>
      <point x="259" y="220" type="line"/>
      <point x="70" y="220" type="line"/>
    </contour>
  </outline>
</glyph>
<glyph name="Euro.lc" format="2">
  <advance width="519"/>
  <outline>
    <contour>
      <point x="58" y="215" type="line"/>
      <point x="388" y="215" type="line"/>
      <point x="392" y="243" type="line"/>
      <point x="62" y="243" type="line"/>
    </contour>
    <contour>
      <point x="65" y="262" type="line"/>
      <point x="395" y="262" type="line"/>
      <point x="399" y="290" type="line"/>
      <point x="69" y="290" type="line"/>
    </contour>
    <component base="c" xOffset="30"/>
  </outline>
</glyph>
<glyph name="J.base" format="2">
  <advance width="410"/>
  <anchor x="320" y="642" name="top"/>
  <outline>
    <contour>
      <point x="69" y="-24" type="line" smooth="yes"/>
      <point x="266" y="-24"/>
      <point x="375" y="65"/>
      <point x="399" y="234" type="curve" smooth="yes"/>
      <point x="458" y="658" type="line"/>
      <point x="182" y="658" type="line"/>
      <point x="125" y="250" type="line" smooth="yes"/>
      <point x="121" y="218"/>
      <point x="95" y="196"/>
      <point x="68" y="196" type="curve" smooth="yes"/>
      <point x="52" y="196" type="line"/>
      <point x="21" y="-24" type="line"/>
    </contour>
  </outline>
</glyph>
<glyph name="S.sc" format="2">
  <advance width="553"/>
  <anchor x="351" y="540" name="top"/>
  <anchor x="281" y="8" name="bottom"/>
  <outline>
    <contour>
      <point x="287" y="-15" type="curve" smooth="yes"/>
      <point x="429" y="-15"/>
      <point x="554" y="55"/>
      <point x="554" y="190" type="curve" smooth="yes"/>
      <point x="554" y="287"/>
      <point x="488" y="338"/>
      <point x="346" y="356" type="curve" smooth="yes"/>
      <point x="338" y="357" type="line" smooth="yes"/>
      <point x="323" y="359"/>
      <point x="315" y="367"/>
      <point x="315" y="377" type="curve" smooth="yes"/>
      <point x="315" y="389"/>
      <point x="326" y="397"/>
      <point x="352" y="397" type="curve" smooth="yes"/>
      <point x="415" y="397"/>
      <point x="473" y="381"/>
      <point x="546" y="351" type="curve"/>
      <point x="575" y="518" type="line"/>
      <point x="495" y="540"/>
      <point x="425" y="553"/>
      <point x="353" y="553" type="curve" smooth="yes"/>
      <point x="199" y="553"/>
      <point x="76" y="484"/>
      <point x="76" y="362" type="curve" smooth="yes"/>
      <point x="76" y="256"/>
      <point x="133" y="199"/>
      <point x="279" y="181" type="curve" smooth="yes"/>
      <point x="287" y="180" type="line" smooth="yes"/>
      <point x="304" y="178"/>
      <point x="312" y="173"/>
      <point x="312" y="161" type="curve" smooth="yes"/>
      <point x="312" y="147"/>
      <point x="294" y="141"/>
      <point x="257" y="141" type="curve" smooth="yes"/>
      <point x="198" y="141"/>
      <point x="143" y="158"/>
      <point x="63" y="191" type="curve"/>
      <point x="35" y="28" type="line"/>
      <point x="111" y="1"/>
      <point x="180" y="-15"/>
    </contour>
  </outline>
</glyph>
<glyph name="acutecmb.uc" format="2">
  <anchor x="90" y="642" name="_top"/>
  <outline>
    <contour>
      <point x="19" y="706" type="line"/>
      <point x="179" y="706" type="line"/>
      <point x="323" y="862" type="line"/>
      <point x="120" y="862" type="line"/>
    </contour>
  </outline>
</glyph>
<glyph name="braceleft.uc" format="2">
  <advance width="474"/>
  <outline>
    <contour>
      <point x="354" y="-58" type="curve" smooth="yes"/>
      <point x="413" y="-58" type="line"/>
      <point x="438" y="122" type="line"/>
      <point x="422" y="122" type="line" smooth="yes"/>
      <point x="393" y="122"/>
      <point x="375" y="140"/>
      <point x="385" y="167" type="curve" smooth="yes"/>
      <point x="397" y="196" type="line" smooth="yes"/>
      <point x="420" y="259"/>
      <point x="387" y="302"/>
      <point x="307" y="328" type="curve"/>
      <point x="307" y="330" type="line"/>
      <point x="395" y="352"/>
      <point x="442" y="396"/>
      <point x="435" y="462" type="curve" smooth="yes"/>
      <point x="432" y="491" type="line" smooth="yes"/>
      <point x="429" y="518"/>
      <point x="451" y="536"/>
      <point x="480" y="536" type="curve" smooth="yes"/>
      <point x="496" y="536" type="line"/>
      <point x="522" y="716" type="line"/>
      <point x="463" y="716" type="line" smooth="yes"/>
      <point x="296" y="716"/>
      <point x="187" y="640"/>
      <point x="190" y="526" type="curve" smooth="yes"/>
      <point x="191" y="478" type="line" smooth="yes"/>
      <point x="192" y="441"/>
      <point x="166" y="421"/>
      <point x="111" y="419" type="curve"/>
      <point x="86" y="239" type="line"/>
      <point x="140" y="236"/>
      <point x="160" y="216"/>
      <point x="149" y="180" type="curve" smooth="yes"/>
      <point x="135" y="132" type="line" smooth="yes"/>
      <point x="100" y="18"/>
      <point x="187" y="-58"/>
    </contour>
  </outline>
</glyph>
<glyph name="braceright.uc" format="2">
  <advance width="474"/>
  <outline>
    <contour>
      <point x="44" y="-58" type="line"/>
      <point x="103" y="-58" type="line" smooth="yes"/>
      <point x="270" y="-58"/>
      <point x="379" y="18"/>
      <point x="376" y="132" type="curve" smooth="yes"/>
      <point x="374" y="180" type="line" smooth="yes"/>
      <point x="373" y="216"/>
      <point x="399" y="236"/>
      <point x="455" y="239" type="curve"/>
      <point x="480" y="419" type="line"/>
      <point x="425" y="421"/>
      <point x="405" y="441"/>
      <point x="416" y="478" type="curve" smooth="yes"/>
      <point x="431" y="526" type="line" smooth="yes"/>
      <point x="466" y="640"/>
      <point x="379" y="716"/>
      <point x="212" y="716" type="curve" smooth="yes"/>
      <point x="153" y="716" type="line"/>
      <point x="127" y="536" type="line"/>
      <point x="143" y="536" type="line" smooth="yes"/>
      <point x="172" y="536"/>
      <point x="190" y="518"/>
      <point x="179" y="491" type="curve" smooth="yes"/>
      <point x="168" y="462" type="line" smooth="yes"/>
      <point x="143" y="396"/>
      <point x="176" y="352"/>
      <point x="258" y="330" type="curve"/>
      <point x="258" y="328" type="line"/>
      <point x="170" y="302"/>
      <point x="125" y="259"/>
      <point x="132" y="196" type="curve" smooth="yes"/>
      <point x="134" y="167" type="line" smooth="yes"/>
      <point x="138" y="140"/>
      <point x="114" y="122"/>
      <point x="85" y="122" type="curve" smooth="yes"/>
      <point x="69" y="122" type="line"/>
    </contour>
  </outline>
</glyph>
<glyph name="bracketleft.uc" format="2">
  <advance width="449"/>
  <outline>
    <contour>
      <point x="56" y="-58" type="line"/>
      <point x="388" y="-58" type="line"/>
      <point x="413" y="122" type="line"/>
      <point x="325" y="122" type="line"/>
      <point x="383" y="536" type="line"/>
      <point x="471" y="536" type="line"/>
      <point x="497" y="716" type="line"/>
      <point x="165" y="716" type="line"/>
    </contour>
  </outline>
</glyph>
<glyph name="bracketright.uc" format="2">
  <advance width="449"/>
  <outline>
    <contour>
      <point x="44" y="-58" type="line"/>
      <point x="376" y="-58" type="line"/>
      <point x="485" y="716" type="line"/>
      <point x="153" y="716" type="line"/>
      <point x="127" y="536" type="line"/>
      <point x="215" y="536" type="line"/>
      <point x="157" y="122" type="line"/>
      <point x="69" y="122" type="line"/>
    </contour>
  </outline>
</glyph>
<glyph name="dieresiscmb.uc" format="2">
  <anchor x="90" y="642" name="_top"/>
  <outline>
    <contour>
      <point x="-68" y="716" type="line"/>
      <point x="76" y="716" type="line"/>
      <point x="96" y="860" type="line"/>
      <point x="-48" y="860" type="line"/>
    </contour>
    <contour>
      <point x="121" y="716" type="line"/>
      <point x="265" y="716" type="line"/>
      <point x="285" y="860" type="line"/>
      <point x="141" y="860" type="line"/>
    </contour>
  </outline>
</glyph>
<glyph name="dollar.lc" format="2">
  <advance width="553"/>
  <outline>
    <contour>
      <point x="235" y="273" type="line"/>
      <point x="407" y="273" type="line"/>
      <point x="454" y="604" type="line"/>
      <point x="282" y="604" type="line"/>
    </contour>
    <contour>
      <point x="183" y="-102" type="line"/>
      <point x="355" y="-102" type="line"/>
      <point x="405" y="256" type="line"/>
      <point x="233" y="256" type="line"/>
    </contour>
    <component base="s" xOffset="20"/>
  </outline>
</glyph>
<glyph name="dollar.lc_AT_weight800" format="2">
  <advance width="553"/>
  <anchor x="246" y="457" name="top"/>
  <outline>
    <contour>
      <point x="258" y="432" type="line"/>
      <point x="430" y="432" type="line"/>
      <point x="454" y="604" type="line"/>
      <point x="282" y="604" type="line"/>
    </contour>
    <contour>
      <point x="183" y="-102" type="line"/>
      <point x="355" y="-102" type="line"/>
      <point x="379" y="70" type="line"/>
      <point x="207" y="70" type="line"/>
    </contour>
    <component base="s" xOffset="20"/>
  </outline>
</glyph>
<glyph name="dollar.sc_AT_weight800" format="2">
  <advance width="585"/>
  <outline>
    <contour>
      <point x="261" y="445" type="line"/>
      <point x="433" y="445" type="line"/>
      <point x="460" y="641" type="line"/>
      <point x="288" y="641" type="line"/>
    </contour>
    <contour>
      <point x="183" y="-110" type="line"/>
      <point x="355" y="-110" type="line"/>
      <point x="382" y="86" type="line"/>
      <point x="210" y="86" type="line"/>
    </contour>
    <component base="S.sc" xOffset="16"/>
  </outline>
</glyph>
<glyph name="dollar_AT_weight800" format="2">
  <advance width="668"/>
  <outline>
    <contour>
      <point x="350" y="662" type="line"/>
      <point x="530" y="662" type="line"/>
      <point x="544" y="762" type="line"/>
      <point x="364" y="762" type="line"/>
    </contour>
    <contour>
      <point x="243" y="-102" type="line"/>
      <point x="423" y="-102" type="line"/>
      <point x="437" y="0" type="line"/>
      <point x="257" y="0" type="line"/>
    </contour>
    <component base="S" xOffset="16"/>
  </outline>
</glyph>
<glyph name="f.salt_connect" format="2">
  <advance width="359"/>
  <outline>
    <contour>
      <point x="59" y="0" type="line"/>
      <point x="309" y="0" type="line"/>
      <point x="354" y="322" type="line"/>
      <point x="408" y="322" type="line"/>
      <point x="433" y="502" type="line"/>
      <point x="379" y="502" type="line"/>
      <point x="380" y="512" type="line" smooth="yes"/>
      <point x="383" y="540"/>
      <point x="407" y="554"/>
      <point x="434" y="554" type="curve" smooth="yes"/>
      <point x="456" y="554"/>
      <point x="483" y="551"/>
      <point x="515" y="542" type="curve"/>
      <point x="538" y="708" type="line"/>
      <point x="501" y="718"/>
      <point x="444" y="724"/>
      <point x="394" y="724" type="curve" smooth="yes"/>
      <point x="235" y="724"/>
      <point x="149" y="651"/>
      <point x="134" y="534" type="curve" smooth="yes"/>
      <point x="130" y="502" type="line"/>
      <point x="94" y="502" type="line"/>
      <point x="69" y="322" type="line"/>
      <point x="104" y="322" type="line"/>
    </contour>
  </outline>
</glyph>
<glyph name="f.salt_noconnect" format="2">
  <advance width="367"/>
  <outline>
    <contour>
      <point x="59" y="0" type="line"/>
      <point x="309" y="0" type="line"/>
      <point x="354" y="322" type="line"/>
      <point x="404" y="322" type="line"/>
      <point x="429" y="502" type="line"/>
      <point x="379" y="502" type="line"/>
      <point x="383" y="534" type="line" smooth="yes"/>
      <point x="385" y="548"/>
      <point x="395" y="556"/>
      <point x="407" y="556" type="curve" smooth="yes"/>
      <point x="415" y="556"/>
      <point x="425" y="554"/>
      <point x="436" y="549" type="curve"/>
      <point x="458" y="707" type="line"/>
      <point x="427" y="721"/>
      <point x="386" y="728"/>
      <point x="345" y="728" type="curve" smooth="yes"/>
      <point x="231" y="728"/>
      <point x="151" y="655"/>
      <point x="135" y="538" type="curve" smooth="yes"/>
      <point x="130" y="502" type="line"/>
      <point x="94" y="502" type="line"/>
      <point x="69" y="322" type="line"/>
      <point x="104" y="322" type="line"/>
    </contour>
  </outline>
</glyph>
<glyph name="five.dnom" format="2">
  <advance width="346"/>
  <outline>
    <contour>
      <point x="161" y="-20" type="curve" smooth="yes"/>
      <point x="273" y="-20"/>
      <point x="342" y="35"/>
      <point x="342" y="124" type="curve" smooth="yes"/>
      <point x="342" y="185"/>
      <point x="299" y="215"/>
      <point x="215" y="215" type="curve" smooth="yes"/>
      <point x="206" y="215"/>
      <point x="183" y="214"/>
      <point x="164" y="212" type="curve"/>
      <point x="172" y="204" type="line"/>
      <point x="178" y="236" type="line"/>
      <point x="338" y="236" type="line"/>
      <point x="356" y="360" type="line"/>
      <point x="84" y="360" type="line"/>
      <point x="39" y="134" type="line"/>
      <point x="73" y="136"/>
      <point x="106" y="136"/>
      <point x="137" y="136" type="curve" smooth="yes"/>
      <point x="179" y="136"/>
      <point x="190" y="131"/>
      <point x="190" y="120" type="curve" smooth="yes"/>
      <point x="190" y="109"/>
      <point x="179" y="104"/>
      <point x="153" y="104" type="curve" smooth="yes"/>
      <point x="113" y="104"/>
      <point x="80" y="109"/>
      <point x="37" y="121" type="curve"/>
      <point x="20" y="-3" type="line"/>
      <point x="64" y="-14"/>
      <point x="110" y="-20"/>
    </contour>
  </outline>
</glyph>
<glyph name="five.lc" format="2">
  <advance width="603"/>
  <outline>
    <contour>
      <point x="224" y="-158" type="curve" smooth="yes"/>
      <point x="447" y="-158"/>
      <point x="584" y="-67"/>
      <point x="584" y="81" type="curve" smooth="yes"/>
      <point x="584" y="183"/>
      <point x="497" y="245"/>
      <point x="356" y="245" type="curve" smooth="yes"/>
      <point x="308" y="245"/>
      <point x="257" y="236"/>
      <point x="224" y="221" type="curve"/>
      <point x="282" y="189" type="line"/>
      <point x="301" y="284" type="line"/>
      <point x="588" y="284" type="line"/>
      <point x="622" y="520" type="line"/>
      <point x="133" y="520" type="line"/>
      <point x="49" y="100" type="line"/>
      <point x="110" y="112"/>
      <point x="169" y="118"/>
      <point x="233" y="118" type="curve" smooth="yes"/>
      <point x="281" y="118"/>
      <point x="304" y="107"/>
      <point x="304" y="88" type="curve" smooth="yes"/>
      <point x="304" y="68"/>
      <point x="279" y="56"/>
      <point x="228" y="56" type="curve" smooth="yes"/>
      <point x="157" y="56"/>
      <point x="103" y="61"/>
      <point x="43" y="72" type="curve"/>
      <point x="12" y="-146" type="line"/>
      <point x="82" y="-154"/>
      <point x="159" y="-158"/>
    </contour>
  </outline>
</glyph>
<glyph name="four.dnom" format="2">
  <advance width="375"/>
  <outline>
    <contour>
      <point x="171" y="0" type="line"/>
      <point x="323" y="0" type="line"/>
      <point x="329" y="40" type="line"/>
      <point x="361" y="40" type="line"/>
      <point x="376" y="148" type="line"/>
      <point x="344" y="148" type="line"/>
      <point x="372" y="352" type="line"/>
      <point x="186" y="352" type="line"/>
      <point x="41" y="150" type="line"/>
      <point x="26" y="41" type="line"/>
      <point x="177" y="41" type="line"/>
    </contour>
    <contour>
      <point x="192" y="148" type="line"/>
      <point x="138" y="148" type="line"/>
      <point x="206" y="250" type="line"/>
    </contour>
  </outline>
</glyph>
<glyph name="four.lc" format="2">
  <advance width="683"/>
  <outline>
    <contour>
      <point x="303" y="-143" type="line"/>
      <point x="578" y="-143" type="line"/>
      <point x="595" y="-15" type="line"/>
      <point x="653" y="-15" type="line"/>
      <point x="681" y="185" type="line"/>
      <point x="623" y="185" type="line"/>
      <point x="671" y="520" type="line"/>
      <point x="303" y="520" type="line"/>
      <point x="52" y="174" type="line"/>
      <point x="26" y="-13" type="line"/>
      <point x="321" y="-13" type="line"/>
    </contour>
    <contour>
      <point x="349" y="188" type="line"/>
      <point x="263" y="188" type="line"/>
      <point x="370" y="338" type="line"/>
    </contour>
  </outline>
</glyph>
<glyph name="one.dnom" format="2">
  <advance width="308"/>
  <outline>
    <contour>
      <point x="24" y="0" type="line"/>
      <point x="284" y="0" type="line"/>
      <point x="302" y="126" type="line"/>
      <point x="262" y="126" type="line"/>
      <point x="296" y="368" type="line"/>
      <point x="73" y="350" type="line"/>
      <point x="55" y="224" type="line"/>
      <point x="96" y="228" type="line"/>
      <point x="82" y="126" type="line"/>
      <point x="42" y="126" type="line"/>
    </contour>
  </outline>
</glyph>
<glyph name="one.lc" format="2">
  <advance width="474"/>
  <outline>
    <contour>
      <point x="36" y="0" type="line"/>
      <point x="438" y="0" type="line"/>
      <point x="466" y="200" type="line"/>
      <point x="407" y="200" type="line"/>
      <point x="454" y="537" type="line"/>
      <point x="109" y="521" type="line"/>
      <point x="80" y="310" type="line"/>
      <point x="139" y="310" type="line"/>
      <point x="123" y="200" type="line"/>
      <point x="64" y="200" type="line"/>
    </contour>
  </outline>
</glyph>
<glyph name="parenleft.uc" format="2">
  <advance width="440"/>
  <outline>
    <contour>
      <point x="156" y="-58" type="curve"/>
      <point x="400" y="-58" type="line"/>
      <point x="358" y="44"/>
      <point x="335" y="146"/>
      <point x="335" y="249" type="curve" smooth="yes"/>
      <point x="335" y="402"/>
      <point x="392" y="561"/>
      <point x="504" y="716" type="curve"/>
      <point x="260" y="716" type="line"/>
      <point x="152" y="575"/>
      <point x="98" y="409"/>
      <point x="98" y="248" type="curve" smooth="yes"/>
      <point x="98" y="142"/>
      <point x="117" y="35"/>
    </contour>
  </outline>
</glyph>
<glyph name="parenright.uc" format="2">
  <advance width="440"/>
  <outline>
    <contour>
      <point x="24" y="-58" type="curve"/>
      <point x="268" y="-58" type="line"/>
      <point x="380" y="103"/>
      <point x="437" y="276"/>
      <point x="437" y="424" type="curve" smooth="yes"/>
      <point x="437" y="550"/>
      <point x="418" y="638"/>
      <point x="382" y="716" type="curve"/>
      <point x="138" y="716" type="line"/>
      <point x="176" y="628"/>
      <point x="198" y="531"/>
      <point x="198" y="425" type="curve" smooth="yes"/>
      <point x="198" y="273"/>
      <point x="139" y="109"/>
    </contour>
  </outline>
</glyph>
<glyph name="seven.dnom" format="2">
  <advance width="335"/>
  <outline>
    <contour>
      <point x="39" y="0" type="line"/>
      <point x="207" y="0" type="line"/>
      <point x="352" y="267" type="line"/>
      <point x="365" y="360" type="line"/>
      <point x="71" y="360" type="line"/>
      <point x="50" y="216" type="line"/>
      <point x="244" y="216" type="line"/>
      <point x="205" y="298" type="line"/>
    </contour>
  </outline>
</glyph>
<glyph name="seven.lc" format="2">
  <advance width="636"/>
  <outline>
    <contour>
      <point x="45" y="-146" type="line" smooth="yes"/>
      <point x="375" y="-146" type="line" smooth="yes"/>
      <point x="655" y="333" type="line" smooth="yes"/>
      <point x="681" y="520" type="line" smooth="yes"/>
      <point x="105" y="520" type="line" smooth="yes"/>
      <point x="70" y="267" type="line" smooth="yes"/>
      <point x="400" y="267" type="line" smooth="yes"/>
      <point x="326" y="320" type="line" smooth="yes"/>
    </contour>
  </outline>
</glyph>
<glyph name="three.dnom" format="2">
  <advance width="362"/>
  <outline>
    <contour>
      <point x="169" y="-20" type="curve" smooth="yes"/>
      <point x="284" y="-20"/>
      <point x="355" y="25"/>
      <point x="355" y="98" type="curve" smooth="yes"/>
      <point x="355" y="143"/>
      <point x="322" y="171"/>
      <point x="257" y="180" type="curve"/>
      <point x="257" y="177" type="line"/>
      <point x="328" y="187"/>
      <point x="372" y="227"/>
      <point x="372" y="281" type="curve" smooth="yes"/>
      <point x="372" y="341"/>
      <point x="316" y="372"/>
      <point x="205" y="372" type="curve" smooth="yes"/>
      <point x="162" y="372"/>
      <point x="119" y="366"/>
      <point x="78" y="358" type="curve"/>
      <point x="61" y="234" type="line"/>
      <point x="92" y="244"/>
      <point x="124" y="248"/>
      <point x="157" y="248" type="curve" smooth="yes"/>
      <point x="186" y="248"/>
      <point x="198" y="243"/>
      <point x="198" y="234" type="curve" smooth="yes"/>
      <point x="198" y="222"/>
      <point x="178" y="216"/>
      <point x="128" y="216" type="curve" smooth="yes"/>
      <point x="107" y="216" type="line"/>
      <point x="96" y="136" type="line"/>
      <point x="123" y="136" type="line" smooth="yes"/>
      <point x="171" y="136"/>
      <point x="190" y="131"/>
      <point x="190" y="120" type="curve" smooth="yes"/>
      <point x="190" y="109"/>
      <point x="172" y="104"/>
      <point x="137" y="104" type="curve" smooth="yes"/>
      <point x="100" y="104"/>
      <point x="67" y="109"/>
      <point x="37" y="118" type="curve"/>
      <point x="19" y="-6" type="line"/>
      <point x="63" y="-16"/>
      <point x="106" y="-20"/>
    </contour>
  </outline>
</glyph>
<glyph name="three.lc" format="2">
  <advance width="597"/>
  <outline>
    <contour>
      <point x="262" y="-150" type="curve" smooth="yes"/>
      <point x="471" y="-150"/>
      <point x="580" y="-64"/>
      <point x="580" y="62" type="curve" smooth="yes"/>
      <point x="580" y="147"/>
      <point x="523" y="195"/>
      <point x="412" y="206" type="curve"/>
      <point x="412" y="187" type="line"/>
      <point x="537" y="198"/>
      <point x="617" y="267"/>
      <point x="617" y="370" type="curve" smooth="yes"/>
      <point x="617" y="473"/>
      <point x="526" y="540"/>
      <point x="369" y="540" type="curve" smooth="yes"/>
      <point x="264" y="540"/>
      <point x="187" y="527"/>
      <point x="103" y="502" type="curve"/>
      <point x="73" y="286" type="line"/>
      <point x="129" y="310"/>
      <point x="201" y="325"/>
      <point x="260" y="325" type="curve" smooth="yes"/>
      <point x="303" y="325"/>
      <point x="322" y="318"/>
      <point x="322" y="301" type="curve" smooth="yes"/>
      <point x="322" y="282"/>
      <point x="304" y="274"/>
      <point x="259" y="274" type="curve" smooth="yes"/>
      <point x="165" y="274" type="line"/>
      <point x="144" y="122" type="line"/>
      <point x="250" y="122" type="line" smooth="yes"/>
      <point x="287" y="122"/>
      <point x="302" y="115"/>
      <point x="302" y="98" type="curve" smooth="yes"/>
      <point x="302" y="78"/>
      <point x="273" y="68"/>
      <point x="220" y="68" type="curve" smooth="yes"/>
      <point x="164" y="68"/>
      <point x="112" y="81"/>
      <point x="40" y="113" type="curve"/>
      <point x="9" y="-107" type="line"/>
      <point x="89" y="-137"/>
      <point x="163" y="-150"/>
    </contour>
  </outline>
</glyph>
<glyph name="two.dnom" format="2">
  <advance width="353"/>
  <outline>
    <contour>
      <point x="20" y="0" type="line"/>
      <point x="330" y="0" type="line"/>
      <point x="349" y="132" type="line"/>
      <point x="112" y="132" type="line"/>
      <point x="108" y="108" type="line"/>
      <point x="294" y="142"/>
      <point x="370" y="189"/>
      <point x="370" y="271" type="curve" smooth="yes"/>
      <point x="370" y="333"/>
      <point x="309" y="372"/>
      <point x="211" y="372" type="curve" smooth="yes"/>
      <point x="164" y="372"/>
      <point x="120" y="366"/>
      <point x="75" y="354" type="curve"/>
      <point x="56" y="222" type="line"/>
      <point x="82" y="231"/>
      <point x="120" y="240"/>
      <point x="148" y="240" type="curve" smooth="yes"/>
      <point x="179" y="240"/>
      <point x="192" y="234"/>
      <point x="192" y="219" type="curve" smooth="yes"/>
      <point x="192" y="198"/>
      <point x="155" y="182"/>
      <point x="42" y="160" type="curve"/>
    </contour>
  </outline>
</glyph>
<glyph name="two.lc" format="2">
  <advance width="560"/>
  <outline>
    <contour>
      <point x="33" y="0" type="line"/>
      <point x="524" y="0" type="line"/>
      <point x="549" y="182" type="line"/>
      <point x="117" y="182" type="line"/>
      <point x="153" y="152" type="line"/>
      <point x="422" y="188"/>
      <point x="587" y="290"/>
      <point x="587" y="400" type="curve" smooth="yes"/>
      <point x="587" y="493"/>
      <point x="509" y="540"/>
      <point x="355" y="540" type="curve" smooth="yes"/>
      <point x="265" y="540"/>
      <point x="180" y="527"/>
      <point x="104" y="501" type="curve"/>
      <point x="73" y="292" type="line"/>
      <point x="138" y="320"/>
      <point x="191" y="331"/>
      <point x="236" y="331" type="curve" smooth="yes"/>
      <point x="271" y="331"/>
      <point x="283" y="317"/>
      <point x="283" y="301" type="curve" smooth="yes"/>
      <point x="283" y="272"/>
      <point x="247" y="240"/>
      <point x="61" y="202" type="curve"/>
    </contour>
  </outline>
</glyph>
<glyph name="zero.dnom" format="2">
  <advance width="444"/>
  <anchor x="389" y="505" name="top"/>
  <outline>
    <contour>
      <point x="224" y="-16" type="curve" smooth="yes"/>
      <point x="353" y="-16"/>
      <point x="449" y="66"/>
      <point x="449" y="199" type="curve" smooth="yes"/>
      <point x="449" y="306"/>
      <point x="387" y="370"/>
      <point x="269" y="370" type="curve" smooth="yes"/>
      <point x="140" y="370"/>
      <point x="44" y="287"/>
      <point x="44" y="152" type="curve" smooth="yes"/>
      <point x="44" y="46"/>
      <point x="106" y="-16"/>
    </contour>
    <contour>
      <point x="240" y="122" type="curve" smooth="yes"/>
      <point x="226" y="122"/>
      <point x="215" y="134"/>
      <point x="215" y="156" type="curve" smooth="yes"/>
      <point x="215" y="201"/>
      <point x="231" y="230"/>
      <point x="254" y="230" type="curve" smooth="yes"/>
      <point x="268" y="230"/>
      <point x="279" y="218"/>
      <point x="279" y="196" type="curve" smooth="yes"/>
      <point x="279" y="151"/>
      <point x="263" y="122"/>
    </contour>
  </outline>
</glyph>
<glyph name="zero.lc" format="2">
  <advance width="637"/>
  <outline>
    <contour>
      <point x="321" y="-24" type="curve" smooth="yes"/>
      <point x="523" y="-24"/>
      <point x="651" y="100"/>
      <point x="651" y="302" type="curve" smooth="yes"/>
      <point x="651" y="465"/>
      <point x="551" y="548"/>
      <point x="389" y="548" type="curve" smooth="yes"/>
      <point x="185" y="548"/>
      <point x="59" y="424"/>
      <point x="59" y="222" type="curve" smooth="yes"/>
      <point x="59" y="59"/>
      <point x="159" y="-24"/>
    </contour>
    <contour>
      <point x="342" y="182" type="curve" smooth="yes"/>
      <point x="319" y="182"/>
      <point x="305" y="203"/>
      <point x="305" y="235" type="curve" smooth="yes"/>
      <point x="305" y="296"/>
      <point x="331" y="342"/>
      <point x="367" y="342" type="curve" smooth="yes"/>
      <point x="391" y="342"/>
      <point x="404" y="321"/>
      <point x="404" y="289" type="curve" smooth="yes"/>
      <point x="404" y="228"/>
      <point x="378" y="182"/>
    </contour>
  </outline>
</glyph>
<glyph name="zero.lc_salt_slash" format="2">
  <advance width="637"/>
  <outline>
    <contour>
      <point x="321" y="-24" type="curve" smooth="yes"/>
      <point x="523" y="-24"/>
      <point x="651" y="100"/>
      <point x="651" y="302" type="curve" smooth="yes"/>
      <point x="651" y="465"/>
      <point x="551" y="548"/>
      <point x="389" y="548" type="curve" smooth="yes"/>
      <point x="185" y="548"/>
      <point x="59" y="424"/>
      <point x="59" y="222" type="curve" smooth="yes"/>
      <point x="59" y="59"/>
      <point x="159" y="-24"/>
    </contour>
    <contour>
      <point x="305" y="235" type="curve" smooth="yes"/>
      <point x="305" y="296"/>
      <point x="331" y="342"/>
      <point x="367" y="342" type="curve" smooth="yes"/>
      <point x="372" y="342"/>
      <point x="376" y="341"/>
      <point x="380" y="340" type="curve"/>
      <point x="307" y="214" type="line"/>
      <point x="306" y="220"/>
      <point x="305" y="227"/>
    </contour>
    <contour>
      <point x="342" y="182" type="curve" smooth="yes"/>
      <point x="338" y="182"/>
      <point x="335" y="183"/>
      <point x="332" y="184" type="curve"/>
      <point x="402" y="306" type="line"/>
      <point x="403" y="301"/>
      <point x="404" y="295"/>
      <point x="404" y="289" type="curve" smooth="yes"/>
      <point x="404" y="228"/>
      <point x="378" y="182"/>
    </contour>
  </outline>
</glyph>
<glyph name="zero.salt_slash" format="2">
  <advance width="751"/>
  <outline>
    <contour>
      <point x="380" y="-20" type="curve" smooth="yes"/>
      <point x="620" y="-20"/>
      <point x="768" y="146"/>
      <point x="768" y="388" type="curve" smooth="yes"/>
      <point x="768" y="578"/>
      <point x="649" y="678"/>
      <point x="465" y="678" type="curve" smooth="yes"/>
      <point x="224" y="678"/>
      <point x="76" y="522"/>
      <point x="76" y="269" type="curve" smooth="yes"/>
      <point x="76" y="80"/>
      <point x="196" y="-20"/>
    </contour>
    <contour>
      <point x="370" y="273" type="curve" smooth="yes"/>
      <point x="370" y="366"/>
      <point x="400" y="450"/>
      <point x="440" y="450" type="curve" smooth="yes"/>
      <point x="445" y="450"/>
      <point x="449" y="449"/>
      <point x="452" y="448" type="curve"/>
      <point x="371" y="257" type="line"/>
      <point x="370" y="262"/>
      <point x="370" y="267"/>
    </contour>
    <contour>
      <point x="404" y="209" type="curve" smooth="yes"/>
      <point x="400" y="209"/>
      <point x="396" y="210"/>
      <point x="393" y="211" type="curve"/>
      <point x="474" y="400" type="line"/>
      <point x="474" y="386"/>
      <point x="474" y="386"/>
      <point x="474" y="386" type="curve" smooth="yes"/>
      <point x="474" y="285"/>
      <point x="441" y="209"/>
    </contour>
  </outline>
</glyph>
<glyph name="zero.sc_salt_slash" format="2">
  <advance width="638"/>
  <outline>
    <contour>
      <point x="331" y="-16" type="curve" smooth="yes"/>
      <point x="516" y="-16"/>
      <point x="652" y="105"/>
      <point x="652" y="300" type="curve" smooth="yes"/>
      <point x="652" y="468"/>
      <point x="549" y="554"/>
      <point x="382" y="554" type="curve" smooth="yes"/>
      <point x="199" y="554"/>
      <point x="61" y="433"/>
      <point x="61" y="238" type="curve" smooth="yes"/>
      <point x="61" y="70"/>
      <point x="164" y="-16"/>
    </contour>
    <contour>
      <point x="311" y="234" type="curve" smooth="yes"/>
      <point x="311" y="306"/>
      <point x="335" y="358"/>
      <point x="368" y="358" type="curve" smooth="yes"/>
      <point x="372" y="358"/>
      <point x="375" y="357"/>
      <point x="379" y="356" type="curve"/>
      <point x="312" y="217" type="line"/>
      <point x="311" y="222"/>
      <point x="311" y="228"/>
    </contour>
    <contour>
      <point x="344" y="179" type="curve" smooth="yes"/>
      <point x="341" y="179"/>
      <point x="337" y="179"/>
      <point x="334" y="180" type="curve"/>
      <point x="401" y="320" type="line"/>
      <point x="402" y="315"/>
      <point x="402" y="310"/>
      <point x="402" y="305" type="curve" smooth="yes"/>
      <point x="402" y="233"/>
      <point x="378" y="179"/>
    </contour>
  </outline>
</glyph>
<glyph name="zero.tab_lc_salt_slash" format="2">
  <advance width="650"/>
  <outline>
    <contour>
      <point x="336" y="-19" type="curve" smooth="yes"/>
      <point x="537" y="-19"/>
      <point x="661" y="105"/>
      <point x="661" y="307" type="curve" smooth="yes"/>
      <point x="661" y="459"/>
      <point x="558" y="553"/>
      <point x="390" y="553" type="curve" smooth="yes"/>
      <point x="188" y="553"/>
      <point x="64" y="429"/>
      <point x="64" y="227" type="curve" smooth="yes"/>
      <point x="64" y="75"/>
      <point x="168" y="-19"/>
    </contour>
    <contour>
      <point x="314" y="240" type="curve" smooth="yes"/>
      <point x="314" y="304"/>
      <point x="341" y="353"/>
      <point x="373" y="353" type="curve" smooth="yes"/>
      <point x="378" y="353"/>
      <point x="383" y="352"/>
      <point x="387" y="349" type="curve"/>
      <point x="315" y="224" type="line"/>
      <point x="314" y="229"/>
      <point x="314" y="234"/>
    </contour>
    <contour>
      <point x="352" y="181" type="curve" smooth="yes"/>
      <point x="346" y="181"/>
      <point x="340" y="183"/>
      <point x="335" y="186" type="curve"/>
      <point x="409" y="314" type="line"/>
      <point x="410" y="308"/>
      <point x="411" y="301"/>
      <point x="411" y="294" type="curve" smooth="yes"/>
      <point x="411" y="230"/>
      <point x="383" y="181"/>
    </contour>
  </outline>
</glyph>
<glyph name="zero.tab_salt_slash" format="2">
  <advance width="650"/>
  <outline>
    <contour>
      <point x="332" y="-12" type="curve" smooth="yes"/>
      <point x="538" y="-12"/>
      <point x="668" y="143"/>
      <point x="668" y="394" type="curve" smooth="yes"/>
      <point x="668" y="570"/>
      <point x="570" y="678"/>
      <point x="412" y="678" type="curve" smooth="yes"/>
      <point x="204" y="678"/>
      <point x="76" y="524"/>
      <point x="76" y="272" type="curve" smooth="yes"/>
      <point x="76" y="96"/>
      <point x="173" y="-12"/>
    </contour>
    <contour>
      <point x="319" y="287" type="curve" smooth="yes"/>
      <point x="319" y="373"/>
      <point x="351" y="450"/>
      <point x="387" y="450" type="curve" smooth="yes"/>
      <point x="395" y="450"/>
      <point x="401" y="448"/>
      <point x="406" y="445" type="curve"/>
      <point x="320" y="269" type="line"/>
      <point x="319" y="274"/>
      <point x="319" y="280"/>
    </contour>
    <contour>
      <point x="357" y="217" type="curve" smooth="yes"/>
      <point x="350" y="217"/>
      <point x="343" y="218"/>
      <point x="338" y="222" type="curve"/>
      <point x="425" y="397" type="line"/>
      <point x="425" y="392"/>
      <point x="425" y="386"/>
      <point x="425" y="380" type="curve" smooth="yes"/>
      <point x="425" y="294"/>
      <point x="393" y="217"/>
    </contour>
  </outline>
</glyph>
